<svg width="51" height="50" viewBox="0 0 51 50" fill="none" xmlns="http://www.w3.org/2000/svg">
<path d="M48.668 14.1885H2.66797V48.1885L17.668 48.1885L23.5013 48.1885L30.9492 48.1885L48.668 48.1885V14.1885Z" fill="#9CE0FF"/>
<path d="M47.209 18.75C47.209 17.0898 45.7441 15.625 44.084 15.625H6.58398C4.82617 15.625 3.45898 17.0898 3.45898 18.75V43.75C3.45898 45.5078 4.82617 46.875 6.58398 46.875H44.084C45.7441 46.875 47.209 45.5078 47.209 43.75V18.75ZM44.084 12.5C47.502 12.5 50.334 15.332 50.334 18.75V43.75C50.334 47.2656 47.502 50 44.084 50H6.58398C3.06836 50 0.333984 47.2656 0.333984 43.75V18.75C0.333984 15.332 3.06836 12.5 6.58398 12.5H44.084ZM44.084 6.25C44.8652 6.25 45.6465 7.03125 45.6465 7.8125C45.6465 8.69141 44.8652 9.375 44.084 9.375H6.58398C5.70508 9.375 5.02148 8.69141 5.02148 7.8125C5.02148 7.03125 5.70508 6.25 6.58398 6.25H44.084ZM39.3965 0C40.1777 0 40.959 0.78125 40.959 1.5625C40.959 2.44141 40.1777 3.125 39.3965 3.125H11.2715C10.3926 3.125 9.70898 2.44141 9.70898 1.5625C9.70898 0.78125 10.3926 0 11.2715 0H39.3965Z" fill="#026AA2"/>
</svg>
