<svg width="57" height="51" viewBox="0 0 57 51" fill="none" xmlns="http://www.w3.org/2000/svg">
<path d="M54 2.96875H13V37.9687L26.3696 37.9688L31.5688 37.9687L38.2072 37.9688L54 37.9687V2.96875Z" fill="#9CE0FF"/>
<path d="M50.666 3.17383H25.666V9.42383H53.791V6.29883C53.791 4.63867 52.3262 3.17383 50.666 3.17383ZM16.291 3.17383C14.5332 3.17383 13.166 4.63867 13.166 6.29883V9.42383H22.541V3.17383H16.291ZM13.166 34.4238C13.166 36.1816 14.5332 37.5488 16.291 37.5488H50.666C52.3262 37.5488 53.791 36.1816 53.791 34.4238V12.5488H24.1035H13.166V34.4238ZM16.291 0.0488281H50.666C54.084 0.0488281 56.916 2.88086 56.916 6.29883V34.4238C56.916 37.9395 54.084 40.6738 50.666 40.6738H16.291C12.7754 40.6738 10.041 37.9395 10.041 34.4238V6.29883C10.041 2.88086 12.7754 0.0488281 16.291 0.0488281ZM3.79102 10.9863V37.5488C3.79102 42.7246 7.99023 46.9238 13.166 46.9238H45.9785C46.7598 46.9238 47.541 47.7051 47.541 48.4863C47.541 49.3652 46.7598 50.0488 45.9785 50.0488H13.166C6.23242 50.0488 0.666016 44.4824 0.666016 37.5488V10.9863C0.666016 10.2051 1.34961 9.42383 2.22852 9.42383C3.00977 9.42383 3.79102 10.2051 3.79102 10.9863Z" fill="#026AA2"/>
</svg>
