<svg width="44" height="50" viewBox="0 0 44 50" fill="none" xmlns="http://www.w3.org/2000/svg">
<path d="M41 21H2V47H41V21Z" fill="#9CE0FF"/>
<path d="M21.875 3.125C16.6992 3.125 12.5 7.32422 12.5 12.5V18.75H35.9375C40.2344 18.75 43.75 22.2656 43.75 26.5625V42.1875C43.75 46.582 40.2344 50 35.9375 50H7.8125C3.41797 50 0 46.582 0 42.1875V26.5625C0 22.2656 3.41797 18.75 7.8125 18.75H9.375V12.5C9.375 5.66406 14.9414 0 21.875 0C27.5391 0 32.3242 3.80859 33.7891 8.98438C34.082 9.76562 33.5938 10.6445 32.7148 10.9375C31.9336 11.1328 31.0547 10.6445 30.8594 9.86328C29.6875 5.95703 26.0742 3.125 21.875 3.125ZM7.8125 21.875C5.17578 21.875 3.125 24.0234 3.125 26.5625V42.1875C3.125 44.8242 5.17578 46.875 7.8125 46.875H35.9375C38.4766 46.875 40.625 44.8242 40.625 42.1875V26.5625C40.625 24.0234 38.4766 21.875 35.9375 21.875H7.8125ZM25.7812 35.9375H17.9688C17.0898 35.9375 16.4062 35.2539 16.4062 34.375C16.4062 33.5938 17.0898 32.8125 17.9688 32.8125H25.7812C26.5625 32.8125 27.3438 33.5938 27.3438 34.375C27.3438 35.2539 26.5625 35.9375 25.7812 35.9375Z" fill="#026AA2"/>
</svg>
