<svg width="51" height="51" viewBox="0 0 51 51" fill="none" xmlns="http://www.w3.org/2000/svg">
<path d="M48.666 2.18848H2.66602V38.8944L17.666 38.8944V48.2041L30.9473 38.8944L48.666 38.8944V2.18848Z" fill="#9CE0FF"/>
<path d="M19.416 40.625V45.3125L28.9863 38.1836C29.4746 37.793 30.1582 37.5 30.8418 37.5H44.416C46.0762 37.5 47.541 36.1328 47.541 34.375V6.25C47.541 4.58984 46.0762 3.125 44.416 3.125H6.91602C5.1582 3.125 3.79102 4.58984 3.79102 6.25V34.375C3.79102 36.1328 5.1582 37.5 6.91602 37.5H16.291C17.9512 37.5 19.416 38.9648 19.416 40.625ZM6.91602 0H44.416C47.834 0 50.666 2.83203 50.666 6.25V34.375C50.666 37.8906 47.834 40.625 44.416 40.625H30.8418L18.7324 49.707C18.2441 50.0977 17.6582 50.0977 17.0723 49.9023C16.584 49.6094 16.291 49.1211 16.291 48.4375V43.75V40.625H13.166H6.91602C3.40039 40.625 0.666016 37.8906 0.666016 34.375V6.25C0.666016 2.83203 3.40039 0 6.91602 0ZM36.1152 14.4531L23.6152 26.9531C23.0293 27.5391 21.9551 27.5391 21.3691 26.9531L15.1191 20.7031C14.5332 20.1172 14.5332 19.043 15.1191 18.457C15.7051 17.8711 16.7793 17.8711 17.3652 18.457L22.541 23.6328L33.8691 12.207C34.4551 11.6211 35.5293 11.6211 36.1152 12.207C36.7012 12.793 36.7012 13.8672 36.1152 14.4531Z" fill="#026AA2"/>
</svg>
