<svg width="57" height="51" viewBox="0 0 57 51" fill="none" xmlns="http://www.w3.org/2000/svg">
<path d="M24.1666 2.74609H2V47.7373H32.6666L26.1666 37.7373L25.1666 24.7373L34.6666 20.7373L35.6666 14.2373L24.1666 2.74609Z" fill="#9CE0FF"/>
<path d="M31.25 46.875C31.3477 46.875 31.4453 46.875 31.543 46.875C32.3242 47.7539 33.2031 48.5352 34.1797 49.3164C33.3008 49.8047 32.2266 50.0977 31.25 50.0977H6.25C2.73438 50.0977 0 47.2656 0 43.8477V6.25C0 2.83203 2.73438 0 6.25 0H21.4844C22.6562 0 23.9258 0.585938 24.8047 1.46484L36.0352 12.6953C36.9141 13.5742 37.5 14.8438 37.5 16.0156V20.2148L34.375 21.4844V18.75H23.4375C20.8008 18.75 18.75 16.6992 18.75 14.0625V3.125H6.25C4.49219 3.125 3.125 4.58984 3.125 6.25V43.75C3.125 45.5078 4.49219 46.875 6.25 46.875H31.25ZM34.2773 15.625C34.1797 15.4297 34.082 15.1367 33.8867 14.9414L22.5586 3.61328C22.3633 3.41797 22.0703 3.32031 21.875 3.22266V14.0625C21.875 14.9414 22.5586 15.625 23.4375 15.625H34.2773ZM31.25 29.4922C31.3477 34.668 33.3984 42.0898 40.625 46.0938V25.6836L31.25 29.4922ZM53.125 29.4922L43.75 25.6836V46.0938C50.8789 42.0898 52.9297 34.668 53.0273 29.4922H53.125ZM43.0664 22.0703L54.7852 26.7578C55.6641 27.1484 56.25 28.0273 56.25 28.9062C56.25 35.1562 53.7109 45.4102 43.0664 49.9023C42.4805 50.0977 41.7969 50.0977 41.2109 49.9023C30.5664 45.4102 28.125 35.1562 28.125 28.9062C28.125 28.0273 28.7109 27.1484 29.5898 26.7578L41.3086 22.0703C41.7969 21.875 42.4805 21.875 42.9688 22.0703H43.0664Z" fill="#026AA2"/>
</svg>
