<svg width="51" height="44" viewBox="0 0 51 44" fill="none" xmlns="http://www.w3.org/2000/svg">
<path d="M48.0006 27.1211H2.33398V41H48.0006V27.1211Z" fill="#9CE0FF"/>
<path d="M6.58398 3.125C4.82617 3.125 3.45898 4.58984 3.45898 6.25V12.5C3.45898 14.2578 4.82617 15.625 6.58398 15.625H44.084C45.7441 15.625 47.209 14.2578 47.209 12.5V6.25C47.209 4.58984 45.7441 3.125 44.084 3.125H6.58398ZM0.333984 6.25C0.333984 2.83203 3.06836 0 6.58398 0H44.084C47.502 0 50.334 2.83203 50.334 6.25V12.5C50.334 16.0156 47.502 18.75 44.084 18.75H6.58398C3.06836 18.75 0.333984 16.0156 0.333984 12.5V6.25ZM6.58398 28.125C4.82617 28.125 3.45898 29.5898 3.45898 31.25V37.5C3.45898 39.2578 4.82617 40.625 6.58398 40.625H44.084C45.7441 40.625 47.209 39.2578 47.209 37.5V31.25C47.209 29.5898 45.7441 28.125 44.084 28.125H6.58398ZM0.333984 31.25C0.333984 27.832 3.06836 25 6.58398 25H44.084C47.502 25 50.334 27.832 50.334 31.25V37.5C50.334 41.0156 47.502 43.75 44.084 43.75H6.58398C3.06836 43.75 0.333984 41.0156 0.333984 37.5V31.25ZM30.0215 34.375C30.0215 33.1055 30.998 32.0312 32.3652 32.0312C33.6348 32.0312 34.709 33.1055 34.709 34.375C34.709 35.7422 33.6348 36.7188 32.3652 36.7188C30.998 36.7188 30.0215 35.7422 30.0215 34.375ZM32.3652 7.03125C33.6348 7.03125 34.709 8.10547 34.709 9.375C34.709 10.7422 33.6348 11.7188 32.3652 11.7188C30.998 11.7188 30.0215 10.7422 30.0215 9.375C30.0215 8.10547 30.998 7.03125 32.3652 7.03125ZM37.834 34.375C37.834 33.1055 38.8105 32.0312 40.1777 32.0312C41.4473 32.0312 42.5215 33.1055 42.5215 34.375C42.5215 35.7422 41.4473 36.7188 40.1777 36.7188C38.8105 36.7188 37.834 35.7422 37.834 34.375ZM40.1777 7.03125C41.4473 7.03125 42.5215 8.10547 42.5215 9.375C42.5215 10.7422 41.4473 11.7188 40.1777 11.7188C38.8105 11.7188 37.834 10.7422 37.834 9.375C37.834 8.10547 38.8105 7.03125 40.1777 7.03125Z" fill="#026AA2"/>
</svg>
