<svg width="124" height="30" viewBox="0 0 124 30" fill="none" xmlns="http://www.w3.org/2000/svg">
<path fill-rule="evenodd" clip-rule="evenodd" d="M113.987 8.78331L114.501 8.94153C117.298 10.113 119.26 12.8568 119.26 16.0547L119.172 16.9141L118.495 16.9812C115.528 16.9812 113.123 14.5983 113.123 11.6594C113.123 10.9246 113.273 10.2246 113.545 9.58739L113.986 8.78223L113.987 8.78331Z" fill="#DD2590"/>
<path fill-rule="evenodd" clip-rule="evenodd" d="M118.484 6.31358C121.425 6.31358 123.81 8.6944 123.81 11.6322C123.81 14.2027 121.984 16.3462 119.558 16.8425L119.155 16.8826L119.242 16.0232C119.242 12.8275 117.296 10.0869 114.523 8.91547L114.014 8.75725L114.068 8.65755C115.026 7.24337 116.647 6.3125 118.485 6.3125L118.484 6.31358Z" fill="white"/>
<path fill-rule="evenodd" clip-rule="evenodd" d="M103.601 16.6559L103.535 16.1249C103.464 13.1047 105.176 10.1918 108.109 8.87193L108.933 8.59668L109.271 9.18186C110.487 11.8726 109.288 15.0369 106.592 16.2506C105.918 16.554 105.214 16.7068 104.519 16.7231L103.601 16.6559Z" fill="#FDB022"/>
<path fill-rule="evenodd" clip-rule="evenodd" d="M99.5101 13.5761C98.294 10.8853 99.4938 7.72103 102.19 6.50732C104.548 5.44533 107.271 6.22882 108.729 8.24444L108.933 8.59663L108.109 8.87188C105.177 10.1918 103.464 13.1047 103.536 16.1249L103.601 16.6559L103.488 16.6472C101.794 16.3568 100.27 15.2579 99.5101 13.5761Z" fill="white"/>
<path fill-rule="evenodd" clip-rule="evenodd" d="M116.14 22.2421L115.728 22.5835C113.22 24.2751 109.84 24.4105 107.142 22.6604L106.465 22.1164L106.775 21.5161C108.387 19.041 111.704 18.3398 114.183 19.948C114.803 20.35 115.313 20.8583 115.701 21.4337L116.141 22.2421H116.14Z" fill="#0BA5EC"/>
<path fill-rule="evenodd" clip-rule="evenodd" d="M115.753 27.3406C114.142 29.8157 110.825 30.5168 108.345 28.9086C106.176 27.5009 105.366 24.7907 106.277 22.4771L106.464 22.1162L107.141 22.6602C109.838 24.4103 113.219 24.2749 115.727 22.5833L116.139 22.2419L116.193 22.3416C116.863 23.9216 116.76 25.7942 115.752 27.3417L115.753 27.3406Z" fill="white"/>
<path d="M1.31701 27.1059C0.923972 27.1059 0.606933 26.9845 0.363726 26.7429C0.120518 26.5012 0 26.1837 0 25.7914V1.41214C0 1.02094 0.121604 0.703426 0.363726 0.460685C0.605847 0.219027 0.923972 0.0976562 1.31701 0.0976562C1.71005 0.0976562 2.02709 0.219027 2.2703 0.460685C2.51351 0.702342 2.63402 1.01986 2.63402 1.41214V25.7914C2.63402 26.1837 2.51242 26.5001 2.2703 26.7429C2.02818 26.9845 1.71005 27.1059 1.31701 27.1059ZM2.18235 20.7773L0.553731 19.0141L12.4036 8.3281C12.6805 8.07453 12.9693 7.95316 13.27 7.96508C13.5697 7.977 13.8465 8.12112 14.1017 8.39746C14.3558 8.67379 14.4774 8.96855 14.4654 9.27956C14.4535 9.59058 14.3091 9.86258 14.0322 10.0923L2.18235 20.7773ZM14.1364 26.9325C13.8357 27.1861 13.5241 27.2955 13.2005 27.2608C12.877 27.2262 12.6001 27.0593 12.3688 26.7591L4.64266 17.2835L6.5134 15.6233L14.3091 25.2019C14.5393 25.4782 14.6435 25.7719 14.6207 26.084C14.5979 26.395 14.435 26.6778 14.1354 26.9314L14.1364 26.9325Z" fill="white"/>
<path d="M26.7137 27.2787C24.8658 27.2787 23.2143 26.8636 21.7594 26.0335C20.3045 25.2034 19.1612 24.0623 18.3296 22.6102C17.4979 21.1581 17.082 19.5099 17.082 17.6655C17.082 15.8211 17.4979 14.1381 18.3296 12.686C19.1612 11.2339 20.3045 10.0928 21.7594 9.26271C23.2143 8.43262 24.8658 8.01758 26.7137 8.01758C28.5616 8.01758 30.2076 8.43262 31.6506 9.26271C33.0936 10.0928 34.2314 11.2339 35.0631 12.686C35.8948 14.1381 36.3215 15.7983 36.3454 17.6655C36.3454 19.5099 35.9241 21.1581 35.0805 22.6102C34.2369 24.0623 33.0936 25.2034 31.6506 26.0335C30.2066 26.8636 28.5606 27.2787 26.7137 27.2787ZM26.7137 24.8578C28.0535 24.8578 29.2544 24.5467 30.3173 23.9236C31.3792 23.3016 32.2108 22.4488 32.8123 21.3651C33.4128 20.2814 33.7135 19.0482 33.7135 17.6655C33.7135 16.2827 33.4128 15.043 32.8123 13.9485C32.2119 12.854 31.3802 11.9946 30.3173 11.3726C29.2544 10.7506 28.0535 10.4385 26.7137 10.4385C25.3739 10.4385 24.1731 10.7495 23.1101 11.3726C22.0472 11.9946 21.21 12.854 20.5977 13.9485C19.9853 15.0441 19.6791 16.2827 19.6791 17.6655C19.6791 19.0482 19.9853 20.2825 20.5977 21.3651C21.209 22.4488 22.0472 23.3016 23.1101 23.9236C24.172 24.5457 25.3739 24.8578 26.7137 24.8578Z" fill="white"/>
<path d="M42.858 27.1059C42.4422 27.1059 42.1186 26.991 41.8874 26.7602C41.6561 26.5305 41.541 26.2064 41.541 25.7925V9.50389C41.541 9.08885 41.6561 8.76591 41.8874 8.53509C42.1175 8.30535 42.4422 8.1894 42.858 8.1894C43.2739 8.1894 43.5974 8.30535 43.8287 8.53509C44.0589 8.76591 44.175 9.08885 44.175 9.50389V25.7914C44.175 26.2064 44.0589 26.5294 43.8287 26.7591C43.5974 26.9899 43.2739 27.1048 42.858 27.1048V27.1059ZM42.6496 15.4521C42.7191 14.0228 43.0936 12.743 43.7755 11.6138C44.4563 10.4846 45.3455 9.59708 46.4432 8.95122C47.5398 8.30644 48.7591 7.98242 50.0989 7.98242C51.1607 7.98242 51.9816 8.13305 52.5592 8.43214C53.1357 8.73232 53.3561 9.17012 53.2172 9.74663C53.1249 10.0923 52.9685 10.3231 52.7492 10.438C52.5299 10.554 52.2639 10.5995 51.9523 10.5767C51.6406 10.554 51.2878 10.5312 50.8958 10.5074C49.6016 10.3925 48.4529 10.5247 47.4486 10.9051C46.4443 11.2854 45.6473 11.8685 45.0578 12.6519C44.4693 13.4354 44.174 14.3696 44.174 15.4532H42.6496V15.4521Z" fill="white"/>
<path d="M58.7272 27.1059C58.3113 27.1059 57.9878 26.991 57.7565 26.7602C57.5252 26.5305 57.4102 26.2064 57.4102 25.7925V9.50389C57.4102 9.08885 57.5252 8.76591 57.7565 8.53509C57.9867 8.30535 58.3113 8.1894 58.7272 8.1894C59.143 8.1894 59.4666 8.30535 59.6978 8.53509C59.928 8.76591 60.0442 9.08885 60.0442 9.50389V25.7914C60.0442 26.2064 59.928 26.5294 59.6978 26.7591C59.4666 26.9899 59.143 27.1048 58.7272 27.1048V27.1059ZM58.5187 15.4521C58.5882 14.0228 58.9628 12.743 59.6446 11.6138C60.3254 10.4846 61.2146 9.59708 62.3123 8.95122C63.4089 8.30644 64.6282 7.98242 65.968 7.98242C67.0299 7.98242 67.8507 8.13305 68.4283 8.43214C69.0049 8.73232 69.2253 9.17012 69.0863 9.74663C68.994 10.0923 68.8377 10.3231 68.6183 10.438C68.3979 10.554 68.133 10.5995 67.8214 10.5767C67.5098 10.554 67.1569 10.5312 66.765 10.5074C65.4707 10.3925 64.322 10.5247 63.3177 10.9051C62.3123 11.2854 61.5165 11.8685 60.9269 12.6519C60.3373 13.4354 60.0431 14.3696 60.0431 15.4532H58.5187V15.4521Z" fill="white"/>
<path d="M80.2435 27.2787C78.465 27.2787 76.8711 26.8582 75.4618 26.0162C74.0525 25.1753 72.9375 24.0277 72.1188 22.5756C71.2991 21.1234 70.8887 19.486 70.8887 17.6655C70.8887 15.8449 71.3099 14.1728 72.1536 12.7207C72.9961 11.2686 74.1459 10.1221 75.6008 9.28005C77.0557 8.43912 78.6963 8.01758 80.5203 8.01758C82.3444 8.01758 83.9795 8.43804 85.4225 9.28005C86.8655 10.1221 88.0087 11.2686 88.8524 12.7207C89.6949 14.1728 90.1281 15.8221 90.152 17.6655L89.0782 18.4956C89.0782 20.1557 88.6906 21.6479 87.9175 22.9743C87.1434 24.3008 86.0924 25.3487 84.7645 26.1213C83.4356 26.894 81.9286 27.2798 80.2435 27.2798V27.2787ZM80.5203 24.8578C81.8602 24.8578 83.0545 24.5467 84.1066 23.9236C85.1576 23.3016 85.9893 22.4423 86.6016 21.3478C87.2129 20.2533 87.5202 19.0255 87.5202 17.6644C87.5202 16.3033 87.214 15.0484 86.6016 13.9637C85.9893 12.88 85.1576 12.0217 84.1066 11.3878C83.0556 10.7538 81.8602 10.4363 80.5203 10.4363C79.1805 10.4363 78.0133 10.7538 76.9515 11.3878C75.8885 12.0217 75.046 12.8811 74.4228 13.9637C73.7996 15.0473 73.4869 16.2805 73.4869 17.6644C73.4869 19.0482 73.7985 20.2522 74.4228 21.3478C75.046 22.4433 75.8896 23.3016 76.9515 23.9236C78.0133 24.5457 79.2033 24.8578 80.5203 24.8578ZM88.8013 27.1064C88.4083 27.1064 88.0847 26.985 87.8318 26.7433C87.5777 26.5017 87.4507 26.1842 87.4507 25.7919V19.8783L88.1086 17.1464L90.1531 17.6655V25.7919C90.1531 26.1842 90.0261 26.5006 89.772 26.7433C89.5179 26.985 89.1944 27.1064 88.8013 27.1064Z" fill="white"/>
</svg>
