<svg width="209" height="94" viewBox="0 0 209 94" fill="none" xmlns="http://www.w3.org/2000/svg">
<path d="M170.406 43.8788V46.0701H190.667V47.9377H170.406V50.1289H190.667V51.9908H167.829V42.017H190.667V43.8788H170.406ZM162.208 46.0553H146.554V42H143.98V51.9717H146.554V48.2487H162.208V51.9717H164.781V42H162.208L162.208 46.0553ZM119.736 44.2174V49.784C119.734 50.0742 119.799 50.3618 119.928 50.6305C120.056 50.8991 120.246 51.1434 120.486 51.3493C120.726 51.5553 121.012 51.7188 121.326 51.8304C121.641 51.9421 121.978 51.9997 122.319 52L140.977 51.9837V49.7925H122.668C122.582 49.791 122.5 49.7625 122.438 49.7126C122.376 49.6628 122.338 49.595 122.331 49.5224V44.5164C122.343 44.4298 122.394 44.3502 122.471 44.2932C122.549 44.2361 122.649 44.2056 122.751 44.2075H140.977V42.0163H122.35C121.66 42.014 120.998 42.2447 120.508 42.6577C120.018 43.0708 119.74 43.6324 119.736 44.2196V44.2174ZM114.064 46.0666L97.6286 46.0722C97.5732 46.075 97.5178 46.0682 97.4657 46.0522C97.4136 46.0362 97.3658 46.0114 97.3253 45.9792C97.2848 45.947 97.2524 45.9081 97.23 45.865C97.2076 45.8218 97.1958 45.7752 97.1953 45.728V44.2337C97.1952 44.1861 97.2064 44.139 97.2283 44.0953C97.2501 44.0515 97.2821 44.0119 97.3223 43.9789C97.3626 43.9459 97.4102 43.9202 97.4624 43.9032C97.5146 43.8863 97.5703 43.8785 97.6261 43.8803H116.28V42.0177H97.1521C96.4703 42.0246 95.8196 42.2616 95.3429 42.6767C94.8662 43.0918 94.6024 43.651 94.6095 44.2316V45.7266C94.6095 46.3143 94.8837 46.878 95.3717 47.2935C95.8597 47.7091 96.5217 47.9426 97.2119 47.9426L113.648 47.9377C113.703 47.9358 113.758 47.9432 113.809 47.9596C113.861 47.976 113.908 48.001 113.949 48.0331C113.989 48.0652 114.021 48.1038 114.043 48.1466C114.066 48.1895 114.078 48.2357 114.079 48.2826V49.7833C114.079 49.8305 114.067 49.8771 114.045 49.9203C114.023 49.9635 113.991 50.0024 113.95 50.0346C113.91 50.0669 113.862 50.0917 113.81 50.1077C113.758 50.1237 113.702 50.1304 113.647 50.1275H94.9623V51.9894H114.065C114.754 51.9905 115.414 51.7588 115.902 51.3453C116.39 50.9317 116.664 50.3701 116.666 49.784V48.2833C116.664 47.6964 116.389 47.1341 115.901 46.7191C115.414 46.3041 114.754 46.0701 114.064 46.068V46.0666ZM91.6303 51.9378V51.9639H89.0404V51.5716C89.0404 50.9841 88.7663 50.4206 88.2784 50.0052C87.7905 49.5897 87.1288 49.3563 86.4389 49.3563H72.084V51.9795H69.5107V42.0085H89.018C89.3575 42.0081 89.6938 42.0647 90.0076 42.175C90.3214 42.2853 90.6067 42.4472 90.847 42.6514C91.0874 42.8557 91.2782 43.0982 91.4084 43.3652C91.5387 43.6322 91.6059 43.9184 91.6062 44.2075V46.3691C91.6103 46.9414 91.3527 47.4925 90.8878 47.9057C90.423 48.319 89.7875 48.5619 89.1159 48.583C89.8679 48.8793 90.5045 49.3528 90.9501 49.9477C91.3957 50.5425 91.6318 51.2336 91.6303 51.9392V51.9378ZM89.0229 44.5864C89.0219 44.4871 88.9754 44.3921 88.8934 44.3215C88.8115 44.2509 88.7004 44.2103 88.5838 44.2082L72.0831 44.2033V47.1622H88.6311C88.7387 47.1554 88.8391 47.1137 88.9117 47.0457C88.9843 46.9777 89.0235 46.8886 89.0213 46.7968L89.0229 44.5864ZM66.4011 44.2118V49.7783C66.4029 50.068 66.3373 50.3552 66.2081 50.6232C66.0789 50.8912 65.8886 51.1348 65.6483 51.3399C65.408 51.545 65.1224 51.7075 64.8079 51.8181C64.4935 51.9288 64.1564 51.9853 63.8162 51.9845H47.3429C47.0016 51.9865 46.6632 51.9312 46.3471 51.8218C46.0309 51.7123 45.7432 51.5508 45.5004 51.3466C45.2576 51.1423 45.0645 50.8993 44.9321 50.6314C44.7997 50.3635 44.7307 50.076 44.729 49.7854V44.2196C44.7323 43.6317 45.0095 43.069 45.4999 42.6552C45.9902 42.2414 46.6534 42.0103 47.3438 42.0127H63.8569C64.5359 42.0192 65.1844 42.2541 65.661 42.666C66.1375 43.0779 66.4036 43.6335 66.4011 44.2118ZM63.8336 44.5864C63.8302 44.4862 63.7814 44.391 63.6974 44.3208C63.6133 44.2505 63.5006 44.2107 63.3829 44.2097H47.7414C47.6388 44.2077 47.539 44.2383 47.4613 44.2953C47.3836 44.3523 47.3334 44.4319 47.3205 44.5186V49.5246C47.3271 49.5972 47.3653 49.6652 47.4277 49.7151C47.49 49.7651 47.572 49.7934 47.6575 49.7946H63.4227C63.5332 49.7893 63.6373 49.7487 63.7142 49.681C63.7911 49.6133 63.8353 49.5233 63.8378 49.4291L63.8336 44.5864ZM41.7024 44.2118V47.1523C41.7029 47.4424 41.636 47.7298 41.5056 47.9978C41.3752 48.2658 41.1839 48.5093 40.9427 48.7141C40.7015 48.919 40.4152 49.0813 40.1001 49.1916C39.785 49.3019 39.4474 49.3582 39.1067 49.357H22.24V51.9823H19.6667V42.0106H39.1067C39.4473 42.0091 39.7849 42.0649 40.1001 42.1749C40.4153 42.2848 40.7019 42.4467 40.9434 42.6513C41.1849 42.8558 41.3766 43.0989 41.5074 43.3667C41.6382 43.6346 41.7056 43.9217 41.7057 44.2118H41.7024ZM39.1233 44.5878C39.1225 44.4885 39.0761 44.3934 38.9941 44.3227C38.912 44.2521 38.8008 44.2115 38.6842 44.2097L22.24 44.2054V47.1643H38.7348C38.843 47.1589 38.9444 47.1176 39.0173 47.0493C39.0902 46.981 39.1289 46.8911 39.125 46.7989L39.1233 44.5878Z" fill="#98A2B3"/>
</svg>
