<svg width="210" height="94" viewBox="0 0 210 94" fill="none" xmlns="http://www.w3.org/2000/svg">
<g clip-path="url(#clip0_31_16882)">
<path d="M53.0113 32.4203L35.4744 32.4056L32.7619 35.1058L53.0113 35.1162C56.1067 35.1162 58.6076 37.5345 58.6076 40.514V65.8028H61.4149L61.4237 40.514C61.4237 36.0434 57.6566 32.4203 53.0113 32.4203ZM67.0376 65.8028L67.0349 40.514C67.0349 33.0655 60.7555 27.0017 53.0105 27.0017L40.8985 27L38.1869 29.7002L53.0113 29.7037C59.2056 29.7037 64.2267 34.554 64.2267 40.514V65.8028H67.0376ZM53.0113 37.8156L30.0538 37.8104L27.3333 40.5088H27.3702L27.3333 40.514L27.3342 52.2948C27.3342 59.1656 32.6504 64.854 39.5612 65.7007L42.1525 63.1086L41.3596 63.1043C35.1627 63.1043 30.1398 58.2522 30.1398 52.2948V40.5097H32.9516L32.9445 52.2948C32.9445 56.7612 36.7117 60.3859 41.3596 60.3859H44.8826L47.5907 57.6883H41.3596C38.2624 57.6883 35.7624 55.2718 35.7624 52.2948V40.5097H38.5452L38.5478 52.2948C38.5566 53.7842 39.8088 54.9872 41.3587 54.9872H50.2971L53.0017 52.2974L41.3587 52.2948V40.5114L53.0105 40.514V65.8028H55.8231L55.8222 40.514C55.8134 39.0221 54.5603 37.8156 53.0113 37.8156Z" fill="#98A2B3"/>
<path d="M146.855 47.2539V41.9772H155.715H155.958V41.7419V40.0519V39.8149H155.715H146.855V34.68H156.789H157.03V34.4431V32.7513V32.5152H156.789H144.732H144.49V32.7513V49.1818V49.4162H144.732H156.908H157.148V49.1818V47.4909V47.2539H156.908H146.855ZM86.9226 53.0946H86.7944L86.7241 53.2001L82.3897 59.5934L78.0562 53.2001L77.9851 53.0946H77.8569H76.4343H76.1946V53.3316V65.5872V65.8242H76.4343H77.8042H78.0448V65.5872V56.4461L82.1377 62.3603L82.2088 62.4623H82.337H82.409H82.5355L82.6066 62.3603L86.7004 56.4314V65.5881V65.825H86.941H88.3451H88.5857V65.5881V53.3324V53.0955H88.3451H86.9226V53.0946ZM159.307 64.0727V53.3316V53.0946H159.068H157.664H157.424V53.3316V65.5872V65.8242H157.664H163.976H164.217V65.5872V64.3097V64.0727H163.976H159.307ZM77.69 49.417L77.7541 49.2787L79.6676 45.077H88.4347L90.3253 49.2778L90.3876 49.417H90.5457H92.5698H92.943L92.7884 49.0841L85.1883 32.5377L85.1259 32.3984H84.9696H83.2064H83.0501L82.9868 32.5377L75.385 49.0841L75.2304 49.417H75.6054H77.5346H77.69ZM84.0643 35.3746L87.4837 42.9364H80.6229L84.0643 35.3746ZM97.2651 49.417H97.5039V49.1827V43.6214H101.316C104.697 43.6214 108.109 41.8864 108.109 38.0099V37.9623C108.109 34.6541 105.564 32.5152 101.624 32.5152H95.3824H95.1418V32.7513V49.1818V49.4162H95.3824H97.2651V49.417ZM97.5048 34.7017H101.483C104.177 34.7017 105.722 35.916 105.722 38.0333V38.0808C105.722 40.1315 104.02 41.4574 101.386 41.4574H97.5039L97.5048 34.7017ZM140.792 49.417V49.1827V32.7513V32.5152H140.553H138.669H138.428V32.7513V49.1818V49.4162H138.669H140.553H140.792V49.417ZM171.047 58.5616C168.351 57.9925 167.857 57.3914 167.857 56.4132V56.3786C167.857 55.3528 168.848 54.6367 170.266 54.6367C171.528 54.6367 172.62 55.0432 173.705 55.9142L173.898 56.0707L174.051 55.8735L174.867 54.8062L175.008 54.6229L174.825 54.4784C173.446 53.3861 172.093 52.9199 170.303 52.9199C167.796 52.9199 165.973 54.4265 165.973 56.5023V56.5369C165.973 58.8894 167.718 59.7439 170.34 60.3044C172.915 60.838 173.387 61.4305 173.387 62.4009V62.4355C173.387 63.54 172.369 64.2829 170.853 64.2829C169.272 64.2829 168.083 63.7986 166.748 62.6102L166.563 62.4476L166.401 62.6336L165.531 63.6507L165.382 63.8254L165.556 63.9802C167.123 65.358 168.79 66.0006 170.801 66.0006C173.443 66.0006 175.289 64.4784 175.289 62.298V62.2617C175.289 60.3078 174.02 59.2016 171.047 58.5616ZM166.085 49.417C171.363 49.417 175.19 45.8658 175.19 40.9661V40.9194C175.19 36.0492 171.363 32.5143 166.085 32.5143H160.296H160.055V32.7513V49.1818V49.4162H160.296H166.085V49.417ZM162.419 34.7017H166.085C170.013 34.7017 172.757 37.2782 172.757 40.9661V41.0137C172.757 44.6739 170.013 47.2306 166.085 47.2306H162.419V34.7017ZM97.8631 53.1465L97.7981 53.0072H97.6436H96.3264H96.1718L96.1077 53.1465L90.4368 65.4895L90.284 65.8242H90.6572H92.0965H92.2519L92.3169 65.6841L93.7263 62.5851H100.188L101.581 65.6832L101.645 65.8242H101.801H103.313H103.686L103.531 65.4895L97.8631 53.1465ZM94.4946 60.8683L96.9648 55.4359L99.4226 60.8683H94.4946ZM135.745 49.417V49.1827V47.4693V47.2323H135.506H128.206V32.7513V32.5152H127.966H126.082H125.842V32.7513V49.1818V49.4162H126.082H135.506H135.745V49.417ZM132.897 60.7221C134.907 60.2352 136.105 58.8747 136.105 57.0083V56.9737C136.105 55.9609 135.739 55.0441 135.074 54.3902C134.227 53.5547 132.91 53.0946 131.366 53.0946H126.015H125.776V53.3316V65.5872V65.8242H126.015H127.421H127.659V65.5872V61.062H130.853L134.392 65.729L134.464 65.8242H134.584H136.309H136.791L136.5 65.4445L132.897 60.7221ZM127.66 59.3443V54.8477H131.261C133.131 54.8477 134.203 55.6409 134.203 57.0273V57.0619C134.203 58.4492 133.042 59.3452 131.244 59.3452L127.66 59.3443ZM115.733 64.0909V60.2758H122.281H122.523V60.038V58.7778V58.54H122.281H115.733V54.8313H123.081H123.322V54.5935V53.3333V53.0963H123.081H114.088H113.848V53.3333V65.5889V65.8259H114.088H123.172H123.412V65.5889V64.3288V64.0926H123.172H115.733V64.0909ZM138.921 53.0946H138.679V53.3316V65.5872V65.8242H138.92H140.324H140.565V65.5872V53.3316V53.0946H140.324H138.921ZM123.494 38.009V37.9615C123.494 34.6532 120.949 32.5143 117.01 32.5143H110.768H110.526V32.7513V49.1818V49.4162H110.768H112.65H112.89V49.1818V43.6205H116.701C120.082 43.6214 123.494 41.8864 123.494 38.009ZM112.89 34.7017H116.866C119.56 34.7017 121.106 35.916 121.106 38.0333V38.0808C121.106 40.1315 119.404 41.4574 116.771 41.4574H112.889L112.89 34.7017ZM101.909 53.0946H101.671V53.3316V54.609V54.8477H101.909H105.846V65.5872V65.8242H106.086H107.512H107.754V65.5872V54.8477H111.69H111.93V54.609V53.3316V53.0946H111.69H101.909ZM149.9 53.1465L149.836 53.0072H149.683H148.366H148.211L148.149 53.1465L142.478 65.4895L142.323 65.8242H142.697H144.136H144.29L144.356 65.6841L145.765 62.5851H152.228L153.622 65.6832L153.684 65.8242H153.841H155.353H155.726L155.571 65.4895L149.9 53.1465ZM146.534 60.8683L149.004 55.4359L151.462 60.8683H146.534Z" fill="#98A2B3"/>
<path d="M178.303 63.0336V63.0154C178.303 61.4007 179.635 60.0488 181.327 60.0488C183.015 60.0488 184.332 61.3842 184.332 63.0016V63.0154C184.332 64.6319 182.999 65.9881 181.31 65.9881C179.62 65.9872 178.303 64.651 178.303 63.0336ZM184.058 63.0154V63.0016C184.058 61.5157 182.884 60.3031 181.328 60.3031C179.761 60.3031 178.577 61.5321 178.577 63.0154V63.0336C178.577 64.5169 179.752 65.7295 181.31 65.7295C182.874 65.7295 184.058 64.5005 184.058 63.0154ZM180.135 61.4093H181.518C181.909 61.4093 182.232 61.5321 182.433 61.7293C182.584 61.8677 182.682 62.0744 182.682 62.3175V62.3356C182.682 62.8277 182.348 63.1209 181.885 63.2282L182.842 64.452H182.275L181.385 63.3034H181.368H180.592V64.452H180.134L180.135 61.4093ZM181.475 62.9004C181.91 62.9004 182.212 62.7058 182.212 62.3607V62.3451C182.212 62.0243 181.944 61.8175 181.503 61.8175H180.593V62.9004H181.475Z" fill="#98A2B3"/>
</g>
<defs>
<clipPath id="clip0_31_16882">
<rect width="157" height="39" fill="white" transform="translate(27.3333 27)"/>
</clipPath>
</defs>
</svg>
