<svg width="209" height="94" viewBox="0 0 209 94" fill="none" xmlns="http://www.w3.org/2000/svg">
<path d="M57.5455 31.5079C54.6277 29.8524 51.2431 28.9062 47.6355 28.9062C38.6081 28.9062 30.3627 35.9178 30.3627 46.751C30.3627 57.585 39.2711 66.3676 50.2604 66.3676H70.1584C59.1691 66.3676 50.2604 57.585 50.2604 46.751C50.2604 39.5018 54.2232 34.0386 57.5553 31.5458L57.5455 31.5079Z" fill="#98A2B3"/>
<path d="M61.2638 62.8611C64.1822 64.516 67.566 65.463 71.1746 65.463C80.201 65.463 88.4472 58.4506 88.4472 47.6165C88.4472 36.7834 79.5382 28 68.5489 28H48.652C59.6405 28 68.5489 36.7834 68.5489 47.6165C68.5489 54.8666 64.5864 60.3298 61.254 62.8234L61.2638 62.8611Z" fill="#98A2B3"/>
<path d="M112.981 29.0938L110.709 39.6345C109.664 44.2698 105.505 46.0925 101.247 46.0925C96.9886 46.0925 93.6146 44.2698 94.5669 39.6345L96.8386 29.0938H101.518L99.2965 39.4034C98.9089 41.5259 99.7432 42.8641 101.943 42.8641C104.143 42.8641 105.553 41.5259 106.081 39.4034L108.303 29.0938H112.981ZM117.905 35.4361C119.16 34.2832 120.428 33.8219 121.926 33.8219C124.453 33.8219 125.977 35.4361 125.425 37.9968L123.755 45.7466H119.309L120.776 38.9418C120.972 37.8115 120.955 36.5899 119.575 36.5899C117.375 36.5899 117.145 38.9647 117.115 39.1036L115.684 45.7466H111.238L113.093 37.1434C113.316 36.1051 113.443 35.4126 113.593 34.1675H118.109L117.905 35.4361ZM125.676 45.7466L128.17 34.1675H132.615L130.122 45.7466H125.676ZM128.575 32.1842L129.241 29.0938H133.733L133.067 32.1842H128.575ZM135.794 34.1675L136.172 32.4144L140.975 30.7541L140.239 34.1675H142.812L142.215 36.9358H139.643L138.653 41.5259C138.589 41.8251 138.078 43.3245 139.108 43.3245C139.692 43.3245 140.301 43.3245 140.831 43.2558L140.27 45.8623C139.223 46.0464 138.489 46.0925 137.833 46.0925C134.814 46.0925 133.08 45.6773 134.08 42.1255L135.197 36.9358H132.905L133.501 34.1675H135.794ZM145.89 40.834C145.544 42.3329 145.663 43.6249 147.324 43.6249C148.563 43.6249 149.459 43.0479 149.857 41.9637H153.975C153.511 43.4634 152.319 44.5467 151.056 45.1925C149.888 45.8391 148.522 46.0925 147.142 46.0925C142.44 46.0925 140.996 44.1089 141.975 39.5649C142.765 35.8966 145.997 33.8219 149.529 33.8219C154.302 33.8219 155.241 36.5206 154.312 40.834H145.89ZM150.607 38.4804C150.741 37.8576 150.688 37.2356 150.443 36.7505C150.196 36.266 149.746 35.9662 149.058 36.0128C147.498 36.0824 146.89 37.166 146.489 38.4804H150.607ZM163.493 44.0393H163.398C162.487 45.4462 160.711 46.0922 159.049 46.0922C155.704 46.0922 154.827 42.8864 155.449 40.0027C156.11 36.9358 158.348 33.8219 161.833 33.8219C163.308 33.8219 164.673 34.3293 165.28 35.5292H165.326L166.713 29.0938H171.158L167.57 45.7466H163.241L163.493 44.0393ZM160.021 39.9569C159.692 41.4792 159.595 43.5556 161.421 43.5556C163.245 43.5556 164.045 41.4792 164.373 39.9569C164.706 38.4111 164.914 36.3591 162.972 36.3591C161.03 36.3591 160.353 38.4111 160.021 39.9569ZM97.7644 65.5193H93.0856L96.6745 48.867H104.488C107.342 48.867 110.876 49.6281 110.115 53.1564C109.578 55.6478 107.352 56.9627 104.93 57.2399L104.911 57.3313C107.89 57.4009 108.129 58.9006 107.876 61.4835C107.699 62.8217 107.666 64.1746 107.779 65.5195H102.701C102.692 64.3666 102.811 63.1665 102.946 61.9904C103.192 59.9842 103.277 59.1534 100.891 59.1534H99.1361L97.7644 65.5193ZM101.658 55.9244C103.154 55.9244 104.65 55.7171 105.018 54.0104C105.385 52.3031 103.98 52.0954 102.483 52.0954H100.658L99.8321 55.9241L101.658 55.9244ZM113.26 60.6067C112.913 62.1072 113.033 63.3973 114.694 63.3973C115.934 63.3973 116.83 62.8206 117.228 61.7373H121.345C120.882 63.2367 119.689 64.32 118.426 64.9666C117.259 65.6115 115.894 65.8649 114.513 65.8649C109.811 65.8649 108.366 63.8821 109.345 59.3384C110.135 55.671 113.366 53.5954 116.899 53.5954C121.673 53.5954 122.611 56.2941 121.682 60.6067H113.26ZM117.979 58.254C118.112 57.6308 118.059 57.0089 117.813 56.524C117.567 56.0401 117.116 55.7403 116.428 55.7855C114.868 55.8551 114.261 56.9393 113.86 58.2542L117.979 58.254ZM128.482 55.2096C129.737 54.0567 131.007 53.5954 132.504 53.5954C135.03 53.5954 136.553 55.2096 136.002 57.77L134.332 65.5193H129.887L131.354 58.7153C131.549 57.5859 131.532 56.3625 130.151 56.3625C127.953 56.3625 127.721 58.7388 127.692 58.8762L126.261 65.5193H121.815L123.67 56.9161C123.892 55.8786 124.019 55.187 124.169 53.9411H128.686L128.482 55.2096ZM139.73 53.9411L140.108 52.1885L144.911 50.5273L144.175 53.9411H146.749L146.153 56.709H143.579L142.589 61.2986C142.525 61.5992 142.015 63.0975 143.044 63.0975C143.629 63.0975 144.237 63.0975 144.767 63.0282L144.205 65.6344C143.16 65.8196 142.425 65.8646 141.769 65.8646C138.752 65.8646 137.017 65.4511 138.016 61.8988L139.134 56.709H136.841L137.438 53.9411H139.73ZM152.721 65.5193C152.707 65.1507 152.787 64.7816 152.966 63.9509H152.918C152.201 64.7816 150.962 65.8649 148.764 65.8649C145.978 65.8649 144.848 64.3896 145.406 62.0142C146.058 59.1995 148.927 58.0466 152.764 58.0466H154.168C154.387 57.0326 154.939 55.5564 153.146 55.6249C152.06 55.671 151.486 56.7093 151.359 57.4009H147.171C147.502 55.7632 148.571 54.8176 149.878 54.287C151.215 53.7334 152.765 53.5954 154.076 53.5954C156.461 53.5954 159.125 54.5876 158.517 57.1933L157.235 63.145C157.13 63.6287 157.114 64.1361 156.98 65.5195H152.721M150.947 63.3289C152.866 63.3289 153.412 61.5528 153.745 60.0073C152.809 60.0073 151.931 59.9604 151.258 60.2602C150.533 60.5844 149.929 60.9993 149.755 61.806C149.576 62.637 150.106 63.3289 150.947 63.3289Z" fill="#98A2B3"/>
<path d="M158.592 65.5195L162.181 48.8672H166.626L163.037 65.5195H158.592ZM172.923 57.5168C173.008 57.1247 173.012 56.778 172.851 56.5469C172.672 56.294 172.332 56.1322 171.724 56.1322C171.069 56.1322 170.591 56.5016 170.447 57.1706C170.264 58.0231 172.075 57.9778 174.675 58.8315C175.984 59.269 176.76 60.1229 176.352 62.0141C175.691 65.0813 172.597 65.8648 169.907 65.8648C167.029 65.8648 164.346 65.2889 165.13 61.7607H169.342C169.197 62.1071 169.23 62.498 169.422 62.7987C169.615 63.0977 169.938 63.3288 170.36 63.3288C171.226 63.3288 171.927 63.0052 172.087 62.267C172.528 60.2149 165.316 61.4365 166.222 57.2399C166.838 54.3799 170.095 53.5953 172.435 53.5953C175.219 53.5953 177.637 54.3101 177.134 57.5165L172.923 57.5168Z" fill="#98A2B3"/>
</svg>
