<svg width="209" height="94" viewBox="0 0 209 94" fill="none" xmlns="http://www.w3.org/2000/svg">
<g clip-path="url(#clip0_31_16914)">
<path d="M22.6188 44.834C21.3343 44.235 20.2247 43.719 20.2247 42.72C20.2247 41.901 20.7598 41.074 21.9523 41.074C22.818 41.074 23.8446 41.359 25.1817 41.971L26.5138 39.331C24.9673 38.435 23.3824 38 21.6691 38C18.3445 38 16.3601 39.773 16.3601 42.741C16.3601 45.709 18.6813 46.854 20.5464 47.776C21.8997 48.444 23.0679 49.022 23.0679 50.11C23.0679 51.048 22.2264 51.678 20.9752 51.678C19.9719 51.678 18.747 51.313 17.3331 50.59L16 53.418C17.7872 54.425 19.4196 54.874 21.2857 54.874C24.7387 54.874 26.801 52.974 26.801 49.791C26.801 46.781 24.4818 45.701 22.6188 44.834ZM33.7587 39.899C32.3133 39.899 30.1388 39.899 28.8846 39.941V54.555H32.552V50.097H33.6666C35.3355 50.097 39.2184 49.563 39.2184 44.611C39.2184 41.572 37.2794 39.899 33.7587 39.899ZM33.6434 47.354C33.1821 47.354 32.8777 47.354 32.5986 47.331L32.551 47.327V42.665L32.5986 42.662C32.9232 42.64 33.348 42.64 33.6879 42.64C35.385 42.64 35.7259 43.609 35.7259 45.172C35.7279 46.682 35.0846 47.354 33.6434 47.354ZM49.8606 48.899L49.897 48.872C51.1198 47.906 51.7934 46.411 51.7934 44.663C51.7934 41.15 48.7673 39.899 45.9342 39.899C44.4889 39.899 42.3133 39.899 41.0612 39.941V54.555H44.7286V50.097H45.8432C46.0657 50.097 46.2761 50.085 46.4693 50.073L46.4996 50.07L46.5158 50.095C47.1247 51.06 47.9005 52.614 48.1503 54.555C48.9544 54.555 52.1626 54.555 52.1626 54.555C51.8228 52.321 50.5929 50.078 49.8859 48.936L49.8606 48.899ZM45.8189 47.354C45.3577 47.354 45.0543 47.354 44.7751 47.333L44.7276 47.329V42.667L44.7751 42.664C45.0998 42.641 45.5246 42.641 45.8645 42.641C47.5616 42.641 47.9025 43.611 47.9025 45.175C47.9025 46.682 47.2602 47.354 45.8189 47.354ZM54.4818 54.555L58.1452 54.557V39.922H54.4818V54.555ZM69.7696 49.497L65.3779 39.921H61.3686V54.554H64.5961V45.323L69.1506 54.554H73.0152V39.921H69.7696V49.497ZM81.844 49.049H83.3702V52.039L83.3359 52.051C82.9677 52.182 82.0888 52.251 81.7226 52.251C79.7857 52.251 79.0302 50.832 79.0302 47.189C79.0302 43.989 80.1448 42.433 82.4377 42.433C83.2034 42.433 84.321 42.772 85.5114 43.365L86.5047 40.925C85.1736 40.095 83.441 39.6 81.8602 39.6C79.6371 39.6 78.035 40.219 76.9608 41.493C75.8958 42.758 75.3769 44.635 75.3769 47.232C75.3769 52.903 77.0407 55.011 81.5123 55.011C82.9363 55.011 85.0806 54.645 86.6776 53.828V46.554H81.844V49.049ZM92.6885 48.487H97.4433V45.658H92.6885V42.773H97.8812V39.921H89.1799V51.966C89.1799 51.979 89.1587 53.124 89.9233 53.908C90.4007 54.399 91.0824 54.649 91.9482 54.654C94.6163 54.669 97.5383 54.572 97.95 54.557V51.699H92.6875L92.6885 48.487ZM109.472 48.937L109.448 48.899L109.484 48.872C110.707 47.906 111.381 46.411 111.381 44.663C111.381 41.15 108.355 39.899 105.523 39.899C104.077 39.899 101.902 39.899 100.649 39.941V54.555H104.317V50.097H105.432C105.654 50.097 105.863 50.085 106.058 50.073L106.088 50.07L106.104 50.095C106.713 51.06 107.489 52.614 107.739 54.555C108.543 54.555 111.751 54.555 111.751 54.555C111.409 52.322 110.179 50.079 109.472 48.937ZM105.406 47.354C104.945 47.354 104.642 47.354 104.362 47.333L104.315 47.329V42.667L104.362 42.664C104.687 42.641 105.112 42.641 105.452 42.641C107.149 42.641 107.491 43.611 107.491 45.175C107.491 46.682 106.849 47.354 105.406 47.354Z" fill="#98A2B3"/>
<path d="M126.4 49.5954L121.006 38.1504H116.728V54.5554H120.094L120.095 43.2344L125.448 54.5554H129.785V38.1504H126.4V49.5954ZM144.87 42.9044H148.174V54.5554H151.996V42.9044H154.811V39.9204H144.87V42.9044ZM164.478 49.6664C164.478 51.1644 164.392 52.0814 162.705 52.0814C161.087 52.0814 160.814 51.3294 160.814 49.6444V39.9214H157.017V49.8414C157.017 53.3324 158.722 54.8894 162.543 54.8894C166.454 54.8894 168.276 53.1184 168.276 49.3154V39.9214H164.478V49.6664ZM187.738 51.6994V48.4864H192.491V45.6574H187.738V42.7724H192.93V39.9214H184.23V51.9664C184.23 51.9794 184.209 53.1244 184.973 53.9084C185.451 54.3994 186.132 54.6494 186.998 54.6544C189.665 54.6694 192.588 54.5724 193 54.5574V51.6994H187.738ZM135.477 39.9214L131.893 54.5554H135.634L136.161 52.2314H140.262L140.789 54.5554H144.735L141.197 39.9214H135.477ZM136.593 49.4664L138.117 43.1024H138.27L139.829 49.4664H136.593ZM179.787 48.8994L179.822 48.8724C181.044 47.9064 181.718 46.4114 181.718 44.6634C181.718 41.1504 178.692 39.8994 175.859 39.8994C174.414 39.8994 172.238 39.8994 170.986 39.9414V54.5554H174.654V50.0974H175.768C175.991 50.0974 176.2 50.0854 176.394 50.0734L176.425 50.0704L176.441 50.0954C177.05 51.0604 177.826 52.6144 178.076 54.5554C178.879 54.5554 182.089 54.5554 182.089 54.5554C181.749 52.3214 180.519 50.0784 179.812 48.9364L179.787 48.8994ZM175.746 47.3544C175.285 47.3544 174.981 47.3544 174.701 47.3334L174.654 47.3294V42.6674L174.701 42.6644C175.026 42.6414 175.45 42.6414 175.791 42.6414C177.488 42.6414 177.829 43.6114 177.829 45.1754C177.83 46.6824 177.187 47.3544 175.746 47.3544Z" fill="#98A2B3"/>
</g>
<defs>
<clipPath id="clip0_31_16914">
<rect width="177" height="17" fill="white" transform="translate(16 38)"/>
</clipPath>
</defs>
</svg>
