<svg width="209" height="94" viewBox="0 0 209 94" fill="none" xmlns="http://www.w3.org/2000/svg">
<path d="M79.7468 59.4092V44.2658L74.7628 54.1293H71.3436L66.3597 44.2658V59.4092H61.2598V33.416H66.2438L73.0242 47.457L79.7468 33.416H84.7307V59.4092H79.6308H79.7468Z" fill="#98A2B3"/>
<path d="M99.7984 59.4096V57.669C98.5814 59.0035 96.7849 59.6417 95.0463 59.6417C93.3077 59.6417 91.6271 59.0035 90.584 57.9591C89.0772 56.4506 88.6715 54.6519 88.6715 52.5632V40.3789H93.4236V51.867C93.4236 54.4779 95.0463 55.3482 96.5531 55.3482C98.0599 55.3482 99.7405 54.4779 99.7405 51.867V40.3789H104.493V59.4096H99.8564H99.7984Z" fill="#98A2B3"/>
<path d="M119.097 59.4093V47.9212C119.097 45.3103 117.474 44.44 115.967 44.44C114.46 44.44 112.78 45.3103 112.78 47.9212V59.4093H108.028V40.3786H112.664V42.1192C113.881 40.7847 115.677 40.1465 117.416 40.1465C119.155 40.1465 120.835 40.7847 121.878 41.8291C123.385 43.3376 123.791 45.1362 123.791 47.225V59.4093H119.039H119.097Z" fill="#98A2B3"/>
<path d="M133.353 59.4086C129.47 59.4086 127.848 56.6816 127.848 53.9546V44.5553H125.819V40.9581H127.848V35.3301H132.6V40.9581H135.961V44.5553H132.6V53.6645C132.6 54.7669 133.121 55.4052 134.222 55.4052H135.961V59.4086H133.353Z" fill="#98A2B3"/>
<path d="M142.22 51.403C142.22 53.8399 143.727 55.6385 146.392 55.6385C149.058 55.6385 149.522 55.0583 150.681 53.8399L153.579 56.6249C151.666 58.5395 149.812 59.6419 146.334 59.6419C142.857 59.6419 137.526 57.6112 137.526 49.8945C137.526 42.1778 140.887 40.2051 145.813 40.2051C150.739 40.2051 154.1 44.0925 154.1 49.3143V51.4611H142.22V51.403ZM149 46.1232C148.479 44.9628 147.436 44.1505 145.813 44.1505C144.19 44.1505 143.147 44.9628 142.625 46.1232C142.336 46.8194 142.22 47.3416 142.162 48.1539H149.406C149.406 47.3416 149.232 46.8194 148.942 46.1232H149Z" fill="#98A2B3"/>
<path d="M167.197 45.6004C166.444 44.8461 165.865 44.44 164.706 44.44C163.546 44.44 161.634 45.5424 161.634 47.9212V59.4093H156.882V40.3786H161.518V42.1772C162.445 41.0748 164.242 40.1465 166.27 40.1465C168.299 40.1465 169.458 40.6106 170.733 41.9451L167.14 45.5424L167.197 45.6004Z" fill="#98A2B3"/>
<path d="M178.093 59.6414C175.079 59.6414 172.413 59.2932 169.979 56.9144L173.109 53.7813C174.673 55.3478 176.702 55.5799 178.208 55.5799C179.715 55.5799 181.57 55.0577 181.57 53.6072C181.57 52.1567 181.048 51.9827 179.541 51.8666L176.528 51.5765C173.109 51.2284 170.964 49.7779 170.964 46.2386C170.964 42.6994 174.442 40.1465 178.324 40.1465C182.207 40.1465 183.772 40.6687 185.568 42.3513L182.671 45.3103C181.57 44.324 179.889 44.0339 178.266 44.0339C176.644 44.0339 175.543 44.9042 175.543 45.8325C175.543 46.7608 175.832 47.341 177.513 47.4571L180.527 47.7472C184.294 48.0953 186.206 50.126 186.206 53.3171C186.206 56.5083 182.613 59.5253 178.151 59.5253L178.093 59.6414Z" fill="#98A2B3"/>
<path d="M47.0035 34.1113L37.4413 46.5857L27.8791 34.1113C24.2281 36.9543 21.852 41.4219 21.852 46.4697C21.852 51.5175 23.9962 55.5209 27.3575 58.4219L30.429 54.9407C28.0529 52.91 26.4882 49.8929 26.4882 46.5277C26.4882 43.1625 26.9518 42.8724 27.7632 41.3639L37.4413 54.1284L47.1194 41.3639C47.9307 42.9304 48.4523 44.6711 48.4523 46.5857C48.4523 49.9509 46.9455 52.968 44.5695 54.9987L47.583 58.5379C50.9443 55.6949 53.0885 51.4014 53.0885 46.5857C53.0885 41.77 50.7125 37.0704 47.0614 34.2274L47.0035 34.1113Z" fill="#98A2B3"/>
<path d="M37.4413 35.5043C39.5276 35.5043 41.44 36.0846 43.1206 37.0709L45.7865 33.2415C43.3524 31.733 40.5128 30.8047 37.4413 30.8047C34.3698 30.8047 31.5301 31.675 29.0961 33.2415L31.7039 37.0709C33.3846 36.0265 35.355 35.4463 37.4413 35.4463V35.5043Z" fill="#98A2B3"/>
<path d="M37.4413 57.4354C35.1811 57.4354 33.1528 56.7391 31.4142 55.6367L28.5745 59.35C31.0665 61.0906 34.138 62.135 37.4413 62.135C40.7446 62.135 43.8161 61.0906 46.3081 59.35L43.4684 55.6367C41.7298 56.7971 39.6435 57.4934 37.4413 57.4934V57.4354Z" fill="#98A2B3"/>
</svg>
