<svg width="210" height="94" viewBox="0 0 210 94" fill="none" xmlns="http://www.w3.org/2000/svg">
<path d="M64.2796 73.4156C64.4146 73.3233 64.5345 73.231 64.6394 73.1387C64.8493 72.9541 65.0293 72.7541 65.1492 72.5387C65.3741 72.1079 65.479 71.6618 65.464 71.1848C65.464 70.2771 65.1942 69.5387 64.6544 68.9848C64.1297 68.431 63.3351 68.1541 62.3006 68.1387H58.2227V79.1079H62.6305C63.47 79.1079 64.1897 78.8002 64.7444 78.2156C65.3141 77.6464 65.599 76.8617 65.614 75.8925C65.614 75.3079 65.479 74.7541 65.1942 74.2464C64.9693 73.8771 64.6544 73.6002 64.2796 73.4156ZM63.1702 72.2002C62.9603 72.4464 62.6005 72.5848 62.1207 72.5848H60.1717V70.0156H62.1207C62.6005 70.0156 62.9603 70.1387 63.1702 70.3694C63.3951 70.6156 63.5 70.9233 63.5 71.2925C63.5 71.6617 63.3951 71.9541 63.1552 72.2002H63.1702ZM60.1717 74.4464H62.2556C62.7504 74.4464 63.1102 74.5848 63.3201 74.831C63.545 75.0925 63.6499 75.4156 63.6499 75.8002C63.6499 76.1848 63.545 76.4771 63.3201 76.7541C63.1102 77.0156 62.7504 77.1541 62.2706 77.1541H60.1717V74.4464Z" fill="#98A2B3"/>
<path d="M70.0659 68.1387L66.3027 79.1079H68.3717L69.1363 76.7541H72.5696L73.3342 79.1079H75.4032L71.6401 68.1387H70.0659ZM71.9999 74.8925H69.721L70.8605 71.231L71.9999 74.8925Z" fill="#98A2B3"/>
<path d="M76.0782 70.0156H80.366L76.0332 77.4925V79.1079H82.8248V77.1541H78.342L82.8248 69.631V68.1387H76.0782V70.0156Z" fill="#98A2B3"/>
<path d="M87.1889 68.1387L83.4258 79.1079H85.4947L86.2594 76.7541H89.6926L90.4573 79.1079H92.5262L88.7631 68.1387H87.1889ZM89.1229 74.8925H86.8441L87.9835 71.231L89.1229 74.8925Z" fill="#98A2B3"/>
<path d="M99.6929 75.0771L95.525 68.1387H93.7559V79.1079H95.7049V72.1694L99.8728 79.1079H101.642V68.1387H99.6929V75.0771Z" fill="#98A2B3"/>
<path d="M111.881 74.8305H113.905V75.1536C113.905 75.7536 113.725 76.2305 113.38 76.5997C113.035 76.9844 112.615 77.169 112.091 77.169C111.566 77.169 111.506 77.1074 111.296 76.969H111.281C111.056 76.8459 110.876 76.6921 110.726 76.4921C110.561 76.2921 110.441 76.0305 110.396 75.6921C110.321 75.3382 110.292 74.6459 110.292 73.6305C110.292 72.6151 110.321 71.9228 110.396 71.5536C110.456 71.2459 110.561 70.9844 110.726 70.7844C110.861 70.5844 111.056 70.4151 111.281 70.2921C111.506 70.169 111.776 70.1074 112.091 70.0921C112.525 70.0921 112.885 70.2305 113.17 70.4767C113.455 70.7536 113.665 71.0767 113.77 71.4613L113.815 71.6305H115.854L115.809 71.3536C115.644 70.4305 115.239 69.6459 114.594 69.0151C113.95 68.3844 113.11 68.0613 112.091 68.0459C111.266 68.0459 110.561 68.2767 110.007 68.6767C109.452 69.0767 109.032 69.5382 108.777 70.0459C108.612 70.3228 108.492 70.6767 108.417 71.1228C108.342 71.5536 108.312 72.369 108.312 73.6151C108.312 74.8613 108.342 75.6459 108.417 76.0921C108.462 76.3382 108.507 76.5382 108.567 76.7074C108.627 76.8613 108.702 77.0151 108.777 77.1844C109.032 77.7074 109.452 78.169 110.007 78.5536C110.561 78.969 111.266 79.1844 112.091 79.1997C113.155 79.1844 114.055 78.7844 114.759 78.0459C115.464 77.2921 115.824 76.3536 115.839 75.2459V72.8767H111.866V74.8305H111.881Z" fill="#98A2B3"/>
<path d="M124.758 71.2923C124.728 70.2615 124.369 69.4461 123.694 68.8769C123.139 68.3846 122.405 68.123 121.52 68.123H117.412V79.0923H119.361V74.6H120.92L122.974 79.0923H125.268L122.914 74.3077C124.114 73.7384 124.728 72.723 124.743 71.2769L124.758 71.2923ZM119.376 70.0154H121.505C121.925 70.0154 122.255 70.1077 122.48 70.2923C122.749 70.4923 122.884 70.8307 122.884 71.2923C122.884 71.6923 122.764 72.0154 122.525 72.2923C122.285 72.5846 121.925 72.723 121.43 72.7384H119.376V70V70.0154Z" fill="#98A2B3"/>
<path d="M133.215 70.0459C132.96 69.5382 132.57 69.0767 132.015 68.6767C131.46 68.2613 130.741 68.0459 129.901 68.0459C129.077 68.0459 128.372 68.2767 127.817 68.6767C127.262 69.0767 126.843 69.5382 126.588 70.0459C126.423 70.3228 126.303 70.6921 126.228 71.1228C126.153 71.5536 126.123 72.369 126.123 73.6151C126.123 74.8613 126.153 75.6459 126.228 76.0921C126.273 76.3382 126.318 76.5382 126.378 76.7074C126.438 76.8613 126.513 77.0151 126.588 77.1844C126.843 77.7074 127.262 78.169 127.817 78.5536C128.372 78.969 129.077 79.1844 129.901 79.1997C130.726 79.1844 131.445 78.969 132 78.5536C132.54 78.169 132.945 77.7074 133.2 77.1997C133.379 76.9228 133.499 76.5536 133.574 76.1074C133.634 75.6613 133.664 74.8613 133.664 73.6305C133.664 72.3997 133.634 71.569 133.574 71.1382C133.514 70.7074 133.379 70.3382 133.2 70.0613L133.215 70.0459ZM128.537 70.7844C128.672 70.5844 128.867 70.4151 129.092 70.2921C129.316 70.169 129.586 70.1074 129.886 70.0921C130.216 70.0921 130.486 70.169 130.711 70.2921C130.936 70.4151 131.101 70.5844 131.235 70.769H131.25C131.415 70.9844 131.535 71.2459 131.595 71.5536C131.655 71.9074 131.7 72.6151 131.7 73.6305C131.7 74.6459 131.67 75.3382 131.595 75.6921C131.535 76.0151 131.415 76.2767 131.25 76.4767H131.235C131.101 76.6767 130.936 76.8305 130.711 76.9536C130.486 77.0921 130.201 77.1536 129.886 77.1536C129.571 77.1536 129.301 77.0921 129.092 76.9536H129.077C128.852 76.8305 128.672 76.6767 128.522 76.4767C128.357 76.2767 128.237 76.0151 128.192 75.6767C128.117 75.3228 128.087 74.6305 128.087 73.6151C128.087 72.5997 128.117 71.9074 128.192 71.5382C128.252 71.2305 128.357 70.969 128.522 70.769L128.537 70.7844Z" fill="#98A2B3"/>
<path d="M141.071 75.1541C141.071 75.8002 140.891 76.3079 140.561 76.631C140.216 76.9848 139.796 77.1541 139.272 77.1541C138.747 77.1541 138.327 76.9848 137.982 76.631C137.652 76.3079 137.472 75.8002 137.472 75.1541V68.1387H135.523V75.3233C135.523 76.4925 135.898 77.431 136.633 78.1233C137.338 78.831 138.237 79.2002 139.287 79.2002C140.351 79.2002 141.251 78.831 141.955 78.1233C142.66 77.431 143.02 76.4925 143.035 75.3233V68.1387H141.086V75.1541H141.071Z" fill="#98A2B3"/>
<path d="M152.075 70.0156C151.865 69.5387 151.58 69.1694 151.25 68.9233C150.861 68.5848 150.456 68.3694 150.051 68.2618C149.676 68.1848 149.271 68.1387 148.882 68.1387H145.059V79.1079H147.008V75.0002H149.077C150.156 74.9848 151.011 74.6002 151.58 73.8771C152.135 73.2002 152.405 72.431 152.405 71.6002C152.405 70.7694 152.3 70.4464 152.075 70.0002V70.0156ZM150.441 71.5694C150.441 71.9387 150.321 72.2771 150.081 72.5848C149.841 72.8925 149.481 73.0464 148.987 73.0464H146.978V70.0925H148.927C149.301 70.0925 149.601 70.1694 149.886 70.3541C150.051 70.4617 150.186 70.6002 150.276 70.7694C150.366 70.9848 150.426 71.2464 150.426 71.5694H150.441Z" fill="#98A2B3"/>
<path d="M114.296 59.0774C114.371 59.0005 83.7109 59.0774 83.7109 59.0774C83.7109 59.0774 93.0063 55.8005 93.0063 48.7851C93.0063 41.7697 83.7109 19.7697 83.7109 14.1543C83.7859 14.2312 107.399 14.1543 107.399 14.1543C107.399 14.1543 103.951 15.662 103.951 19.6466C103.951 23.6312 114.296 53.3081 114.296 59.0774Z" fill="#98A2B3"/>
<path d="M78.7637 59.0765H81.6122C81.6122 59.0765 91.9571 55.7996 91.9571 48.7842C91.9571 41.7688 87.2794 30.8457 87.2794 30.8457L78.7637 59.0765Z" fill="#98A2B3"/>
<path d="M115.345 59.0774C115.42 59.0005 133.561 59.0005 133.561 59.0774C133.561 52.8466 122.916 24.6158 122.916 20.0466C122.916 15.4774 126.139 14.1543 126.139 14.1543H108.898C108.898 14.1543 105 15.662 105 19.6466C105 23.6312 115.345 53.3081 115.345 59.0774Z" fill="#98A2B3"/>
<path d="M126.004 28.431C126.004 28.431 123.965 21.3079 123.965 20.031C123.965 15.4464 127.638 14.1387 127.638 14.1387H129.512L126.004 28.4156V28.431Z" fill="#98A2B3"/>
</svg>
