<svg width="450" height="290" viewBox="0 0 450 290" fill="none" xmlns="http://www.w3.org/2000/svg">
<g filter="url(#filter0_d_18_658)">
<path d="M42.0149 58.9284C36.9122 48.3066 44.6531 36 56.437 36H350.493C356.645 36 362.252 39.5267 364.916 45.0716L407.672 134.072C409.775 138.451 409.775 143.549 407.672 147.928L364.916 236.928C362.252 242.473 356.645 246 350.493 246H56.437C44.6531 246 36.9122 233.693 42.0149 223.072L78.114 147.928C80.2179 143.549 80.2179 138.451 78.114 134.072L42.0149 58.9284Z" fill="white"/>
</g>
<path d="M203.312 151V119.5H189.531C186.209 119.5 183.625 116.916 183.625 113.594V99.8125H167.875C165.66 99.8125 163.938 101.658 163.938 103.75V151C163.938 153.215 165.66 154.938 167.875 154.938H199.375C201.467 154.938 203.312 153.215 203.312 151ZM203.189 115.562C203.066 115.316 202.943 114.947 202.697 114.701L188.424 100.428C188.178 100.182 187.809 100.059 187.562 99.9355V113.594C187.562 114.701 188.424 115.562 189.531 115.562H203.189ZM160 103.75C160 99.4434 163.445 95.875 167.875 95.875H187.07C188.547 95.875 190.146 96.6133 191.254 97.7207L205.404 111.871C206.512 112.979 207.25 114.578 207.25 116.055V151C207.25 155.43 203.682 158.875 199.375 158.875H167.875C163.445 158.875 160 155.43 160 151V103.75Z" fill="#026AA2"/>
<path d="M211 165.5H176.5L194 137L211 129.5V165.5Z" fill="white"/>
<path d="M221.625 83.25C219.762 83.25 218.312 84.8027 218.312 86.5625V110.785L225.248 103.746C226.904 102.193 229.492 102.193 231.148 103.746L238.188 110.785L251.748 97.1211C253.404 95.5684 255.992 95.5684 257.648 97.1211L264.688 104.16V86.5625C264.688 84.8027 263.135 83.25 261.375 83.25H221.625ZM218.312 115.443V119.688C218.312 121.551 219.762 123 221.625 123H225.869L235.807 113.062L228.768 106.127C228.457 105.816 227.939 105.816 227.629 106.127L218.312 115.443ZM255.268 99.502C254.957 99.1914 254.439 99.1914 254.129 99.502L230.527 123H261.375C263.135 123 264.688 121.551 264.688 119.688V108.818L255.268 99.502ZM215 86.5625C215 82.9395 217.898 79.9375 221.625 79.9375H261.375C264.998 79.9375 268 82.9395 268 86.5625V119.688C268 123.414 264.998 126.312 261.375 126.312H221.625C217.898 126.312 215 123.414 215 119.688V86.5625ZM231.562 91.5312C231.562 90.7031 230.734 89.875 229.906 89.875C228.975 89.875 228.25 90.7031 228.25 91.5312C228.25 92.4629 228.975 93.1875 229.906 93.1875C230.734 93.1875 231.562 92.4629 231.562 91.5312ZM224.938 91.5312C224.938 89.7715 225.869 88.2188 227.422 87.2871C228.871 86.3555 230.838 86.3555 232.391 87.2871C233.84 88.2188 234.875 89.7715 234.875 91.5312C234.875 93.3945 233.84 94.9473 232.391 95.8789C230.838 96.8105 228.871 96.8105 227.422 95.8789C225.869 94.9473 224.938 93.3945 224.938 91.5312Z" fill="#026AA2"/>
<path d="M184.181 167.562C184.067 165.009 185.18 162.556 187.175 160.96L192.59 156.628C193.518 155.885 194.269 154.945 194.789 153.876L200.52 142.076C201.749 139.547 204.213 137.849 207.013 137.602L216.782 136.74C218.544 136.584 220.308 137.017 221.798 137.971L230.601 143.605C231.524 144.195 232.558 144.59 233.64 144.764L241.788 146.079C245.197 146.629 247.869 149.303 248.414 152.713L249.116 157.101C249.366 158.665 250.075 160.12 251.153 161.28L253.862 164.198C255.236 165.678 256 167.622 256 169.642V178.887C256 183.349 252.349 186.949 247.887 186.886L192.544 186.106C188.308 186.047 184.853 182.695 184.665 178.462L184.181 167.562Z" fill="#9CE0FF"/>
<path d="M228.865 145.379C225.666 140.826 220.375 137.75 214.469 137.75C204.871 137.75 197.119 145.256 196.75 154.73C196.627 156.33 195.643 157.684 194.043 158.299C188.752 160.145 184.938 165.312 184.938 171.219C184.938 178.848 191.09 185 198.719 185H244C250.521 185 255.812 179.709 255.812 173.188C255.812 168.758 253.229 164.82 249.414 162.852C247.814 161.867 246.953 160.021 247.568 158.176C247.814 157.438 247.938 156.453 247.938 155.469C247.938 150.055 243.508 145.625 238.094 145.625C236.494 145.625 235.141 145.994 233.787 146.609C232.064 147.471 229.973 146.855 228.865 145.379ZM214.469 133.812C221.729 133.812 228.25 137.504 232.188 143.041C233.91 142.18 235.879 141.688 238.094 141.688C245.6 141.688 251.875 147.963 251.875 155.469C251.875 156.822 251.629 158.053 251.26 159.283C256.305 161.99 259.75 167.158 259.75 173.188C259.75 181.924 252.613 188.938 244 188.938H198.719C188.875 188.938 181 181.062 181 171.219C181 163.59 185.922 156.945 192.812 154.607C193.305 143.041 202.779 133.812 214.469 133.812ZM209.055 160.021L218.898 150.178C219.637 149.439 220.99 149.439 221.729 150.178L231.572 160.021C232.311 160.76 232.311 162.113 231.572 162.852C230.834 163.59 229.48 163.59 228.742 162.852L222.344 156.33V175.156C222.344 176.264 221.359 177.125 220.375 177.125C219.268 177.125 218.406 176.264 218.406 175.156V156.33L211.885 162.852C211.146 163.59 209.793 163.59 209.055 162.852C208.316 162.113 208.316 160.76 209.055 160.021Z" fill="#026AA2"/>
<rect x="177" y="228" width="58" height="58" rx="29" fill="#344054"/>
<path d="M205.865 268V248.86L201.8 251.305V248.83L205.865 246.4H208.1V268H205.865Z" fill="white"/>
<defs>
<filter id="filter0_d_18_658" x="0.417969" y="0" width="448.832" height="290" filterUnits="userSpaceOnUse" color-interpolation-filters="sRGB">
<feFlood flood-opacity="0" result="BackgroundImageFix"/>
<feColorMatrix in="SourceAlpha" type="matrix" values="0 0 0 0 0 0 0 0 0 0 0 0 0 0 0 0 0 0 127 0" result="hardAlpha"/>
<feOffset dy="4"/>
<feGaussianBlur stdDeviation="20"/>
<feComposite in2="hardAlpha" operator="out"/>
<feColorMatrix type="matrix" values="0 0 0 0 0 0 0 0 0 0 0 0 0 0 0 0 0 0 0.08 0"/>
<feBlend mode="normal" in2="BackgroundImageFix" result="effect1_dropShadow_18_658"/>
<feBlend mode="normal" in="SourceGraphic" in2="effect1_dropShadow_18_658" result="shape"/>
</filter>
</defs>
</svg>
