<svg width="450" height="290" viewBox="0 0 450 290" fill="none" xmlns="http://www.w3.org/2000/svg">
<g filter="url(#filter0_d_18_686)">
<path d="M42.0149 58.9284C36.9122 48.3066 44.6531 36 56.437 36H350.493C356.645 36 362.252 39.5267 364.916 45.0716L407.672 134.072C409.775 138.451 409.775 143.549 407.672 147.928L364.916 236.928C362.252 242.473 356.645 246 350.493 246H56.437C44.6531 246 36.9122 233.693 42.0149 223.072L78.114 147.928C80.2179 143.549 80.2179 138.451 78.114 134.072L42.0149 58.9284Z" fill="white"/>
</g>
<path d="M200.625 172.062V177.969L212.684 168.986C213.299 168.494 214.16 168.125 215.021 168.125H232.125C234.217 168.125 236.062 166.402 236.062 164.188V128.75C236.062 126.658 234.217 124.812 232.125 124.812H184.875C182.66 124.812 180.938 126.658 180.938 128.75V164.188C180.938 166.402 182.66 168.125 184.875 168.125H196.688C198.779 168.125 200.625 169.971 200.625 172.062ZM184.875 120.875H232.125C236.432 120.875 240 124.443 240 128.75V164.188C240 168.617 236.432 172.062 232.125 172.062H215.021L199.764 183.506C199.148 183.998 198.41 183.998 197.672 183.752C197.057 183.383 196.688 182.768 196.688 181.906V176V172.062H192.75H184.875C180.445 172.062 177 168.617 177 164.188V128.75C177 124.443 180.445 120.875 184.875 120.875ZM186.844 148.438H214.406C215.391 148.438 216.375 149.422 216.375 150.406C216.375 151.514 215.391 152.375 214.406 152.375H186.844C185.736 152.375 184.875 151.514 184.875 150.406C184.875 149.422 185.736 148.438 186.844 148.438ZM222.281 148.438H230.156C231.141 148.438 232.125 149.422 232.125 150.406C232.125 151.514 231.141 152.375 230.156 152.375H222.281C221.174 152.375 220.312 151.514 220.312 150.406C220.312 149.422 221.174 148.438 222.281 148.438ZM186.844 156.312H198.656C199.641 156.312 200.625 157.297 200.625 158.281C200.625 159.389 199.641 160.25 198.656 160.25H186.844C185.736 160.25 184.875 159.389 184.875 158.281C184.875 157.297 185.736 156.312 186.844 156.312ZM206.531 156.312H230.156C231.141 156.312 232.125 157.297 232.125 158.281C232.125 159.389 231.141 160.25 230.156 160.25H206.531C205.424 160.25 204.562 159.389 204.562 158.281C204.562 157.297 205.424 156.312 206.531 156.312Z" fill="#026AA2"/>
<path d="M233 140L246 143L262 146L290 114.5L266.5 82L218 79.5L208 117L216 128.5L208 137.5L214 146L233 140Z" fill="white"/>
<path d="M216 112L221.5 126.5L216 140L233 134L253 135.5L267 130.5L276 115L269 98.5L253 88.5L235 90.5L221.5 98.5L216 112Z" fill="#9CE0FF"/>
<path d="M217.938 112.406C217.938 117.082 219.783 121.143 222.859 124.711C223.475 125.572 223.844 126.557 223.721 127.664C223.352 130.986 222.367 134.186 220.521 137.139C220.521 137.139 220.398 137.262 220.398 137.385C221.752 137.016 223.105 136.523 224.336 136.031L225.197 137.754L224.336 136.031C226.428 135.047 228.396 133.939 230.365 132.586C231.35 131.848 232.703 131.725 233.934 132.094C237.748 133.447 241.562 134.062 245.5 134.062C261.496 134.062 273.062 123.727 273.062 112.406C273.062 101.209 261.496 90.75 245.5 90.75C229.381 90.75 217.938 101.209 217.938 112.406ZM245.5 86.8125C262.85 86.8125 277 98.3789 277 112.406C277 126.557 262.85 138 245.5 138C241.07 138 236.764 137.262 232.703 135.908C232.58 135.785 232.58 135.908 232.58 135.908C230.488 137.262 228.273 138.615 225.936 139.6C222.982 140.953 219.414 141.938 215.846 141.938C215.107 141.938 214.369 141.568 214.123 140.83C213.754 140.092 214 139.23 214.492 138.615C215.477 137.631 216.338 136.4 217.199 135.047C218.676 132.709 219.414 130.125 219.783 127.295C216.338 123.234 214 118.189 214 112.406C214 98.3789 228.027 86.8125 245.5 86.8125ZM234.672 101.824C235.533 98.8711 238.24 96.6562 241.316 96.6562H248.453C252.76 96.6562 256.328 100.225 256.328 104.654C256.328 107.607 254.605 110.314 252.021 111.668L247.469 114.006V116.344C247.469 117.451 246.484 118.312 245.5 118.312C244.393 118.312 243.531 117.451 243.531 116.344V112.775C243.531 112.037 243.9 111.422 244.516 111.053L250.176 108.1C251.529 107.484 252.391 106.131 252.391 104.654C252.391 102.439 250.545 100.594 248.453 100.594H241.316C239.963 100.594 238.855 101.578 238.486 102.809V102.932C238.24 104.039 237.133 104.654 236.025 104.285C235.041 104.039 234.426 102.932 234.672 101.947V101.824ZM248.453 124.219C248.453 125.941 247.1 127.172 245.5 127.172C243.777 127.172 242.547 125.941 242.547 124.219C242.547 122.619 243.777 121.266 245.5 121.266C247.1 121.266 248.453 122.619 248.453 124.219Z" fill="#026AA2"/>
<rect x="191" y="228" width="58" height="58" rx="29" fill="#FDB022"/>
<path d="M219.405 268.435C218.335 268.435 217.35 268.245 216.45 267.865C215.55 267.485 214.775 266.945 214.125 266.245C213.475 265.535 213 264.69 212.7 263.71L214.8 263.08C215.16 264.15 215.75 264.96 216.57 265.51C217.4 266.06 218.335 266.325 219.375 266.305C220.335 266.285 221.16 266.07 221.85 265.66C222.55 265.25 223.085 264.68 223.455 263.95C223.825 263.22 224.01 262.375 224.01 261.415C224.01 259.945 223.58 258.765 222.72 257.875C221.87 256.975 220.745 256.525 219.345 256.525C218.955 256.525 218.545 256.58 218.115 256.69C217.685 256.79 217.285 256.935 216.915 257.125L215.805 255.37L224.205 247.615L224.565 248.515H213.555V246.4H226.035V248.545L218.715 255.535L218.685 254.665C220.185 254.475 221.505 254.645 222.645 255.175C223.785 255.705 224.675 256.515 225.315 257.605C225.965 258.685 226.29 259.955 226.29 261.415C226.29 262.795 225.99 264.015 225.39 265.075C224.8 266.125 223.985 266.95 222.945 267.55C221.905 268.14 220.725 268.435 219.405 268.435Z" fill="white"/>
<defs>
<filter id="filter0_d_18_686" x="0.417969" y="0" width="448.832" height="290" filterUnits="userSpaceOnUse" color-interpolation-filters="sRGB">
<feFlood flood-opacity="0" result="BackgroundImageFix"/>
<feColorMatrix in="SourceAlpha" type="matrix" values="0 0 0 0 0 0 0 0 0 0 0 0 0 0 0 0 0 0 127 0" result="hardAlpha"/>
<feOffset dy="4"/>
<feGaussianBlur stdDeviation="20"/>
<feComposite in2="hardAlpha" operator="out"/>
<feColorMatrix type="matrix" values="0 0 0 0 0 0 0 0 0 0 0 0 0 0 0 0 0 0 0.08 0"/>
<feBlend mode="normal" in2="BackgroundImageFix" result="effect1_dropShadow_18_686"/>
<feBlend mode="normal" in="SourceGraphic" in2="effect1_dropShadow_18_686" result="shape"/>
</filter>
</defs>
</svg>
