<svg width="450" height="288" viewBox="0 0 450 288" fill="none" xmlns="http://www.w3.org/2000/svg">
<g filter="url(#filter0_d_23_1240)">
<path d="M391.616 36.7701C401.293 35.312 410 42.8053 410 52.5915L410 202.354C410 210.27 404.212 216.996 396.384 218.176L227.384 243.641C225.804 243.879 224.196 243.879 222.616 243.641L53.616 218.176C45.7885 216.996 40 210.27 40 202.354L40 52.5915C40 42.8053 48.7071 35.312 58.384 36.7701L222.616 61.5169C224.196 61.755 225.804 61.755 227.384 61.5169L391.616 36.7701Z" fill="white"/>
</g>
<path d="M204.625 189.062V194.969L216.684 185.986C217.299 185.494 218.16 185.125 219.021 185.125H236.125C238.217 185.125 240.062 183.402 240.062 181.188V145.75C240.062 143.658 238.217 141.812 236.125 141.812H188.875C186.66 141.812 184.938 143.658 184.938 145.75V181.188C184.938 183.402 186.66 185.125 188.875 185.125H200.688C202.779 185.125 204.625 186.971 204.625 189.062ZM188.875 137.875H236.125C240.432 137.875 244 141.443 244 145.75V181.188C244 185.617 240.432 189.062 236.125 189.062H219.021L203.764 200.506C203.148 200.998 202.41 200.998 201.672 200.752C201.057 200.383 200.688 199.768 200.688 198.906V193V189.062H196.75H188.875C184.445 189.062 181 185.617 181 181.188V145.75C181 141.443 184.445 137.875 188.875 137.875ZM190.844 165.438H218.406C219.391 165.438 220.375 166.422 220.375 167.406C220.375 168.514 219.391 169.375 218.406 169.375H190.844C189.736 169.375 188.875 168.514 188.875 167.406C188.875 166.422 189.736 165.438 190.844 165.438ZM226.281 165.438H234.156C235.141 165.438 236.125 166.422 236.125 167.406C236.125 168.514 235.141 169.375 234.156 169.375H226.281C225.174 169.375 224.312 168.514 224.312 167.406C224.312 166.422 225.174 165.438 226.281 165.438ZM190.844 173.312H202.656C203.641 173.312 204.625 174.297 204.625 175.281C204.625 176.389 203.641 177.25 202.656 177.25H190.844C189.736 177.25 188.875 176.389 188.875 175.281C188.875 174.297 189.736 173.312 190.844 173.312ZM210.531 173.312H234.156C235.141 173.312 236.125 174.297 236.125 175.281C236.125 176.389 235.141 177.25 234.156 177.25H210.531C209.424 177.25 208.562 176.389 208.562 175.281C208.562 174.297 209.424 173.312 210.531 173.312Z" fill="#026AA2"/>
<path d="M237 157L250 160L266 163L294 131.5L270.5 99L222 96.5L212 134L220 145.5L212 154.5L218 163L237 157Z" fill="white"/>
<path d="M220 129L225.5 143.5L220 157L237 151L257 152.5L271 147.5L280 132L273 115.5L257 105.5L239 107.5L225.5 115.5L220 129Z" fill="#9CE0FF"/>
<path d="M221.938 129.406C221.938 134.082 223.783 138.143 226.859 141.711C227.475 142.572 227.844 143.557 227.721 144.664C227.352 147.986 226.367 151.186 224.521 154.139C224.521 154.139 224.398 154.262 224.398 154.385C225.752 154.016 227.105 153.523 228.336 153.031L229.197 154.754L228.336 153.031C230.428 152.047 232.396 150.939 234.365 149.586C235.35 148.848 236.703 148.725 237.934 149.094C241.748 150.447 245.562 151.062 249.5 151.062C265.496 151.062 277.062 140.727 277.062 129.406C277.062 118.209 265.496 107.75 249.5 107.75C233.381 107.75 221.938 118.209 221.938 129.406ZM249.5 103.812C266.85 103.812 281 115.379 281 129.406C281 143.557 266.85 155 249.5 155C245.07 155 240.764 154.262 236.703 152.908C236.58 152.785 236.58 152.908 236.58 152.908C234.488 154.262 232.273 155.615 229.936 156.6C226.982 157.953 223.414 158.938 219.846 158.938C219.107 158.938 218.369 158.568 218.123 157.83C217.754 157.092 218 156.23 218.492 155.615C219.477 154.631 220.338 153.4 221.199 152.047C222.676 149.709 223.414 147.125 223.783 144.295C220.338 140.234 218 135.189 218 129.406C218 115.379 232.027 103.812 249.5 103.812ZM238.672 118.824C239.533 115.871 242.24 113.656 245.316 113.656H252.453C256.76 113.656 260.328 117.225 260.328 121.654C260.328 124.607 258.605 127.314 256.021 128.668L251.469 131.006V133.344C251.469 134.451 250.484 135.312 249.5 135.312C248.393 135.312 247.531 134.451 247.531 133.344V129.775C247.531 129.037 247.9 128.422 248.516 128.053L254.176 125.1C255.529 124.484 256.391 123.131 256.391 121.654C256.391 119.439 254.545 117.594 252.453 117.594H245.316C243.963 117.594 242.855 118.578 242.486 119.809V119.932C242.24 121.039 241.133 121.654 240.025 121.285C239.041 121.039 238.426 119.932 238.672 118.947V118.824ZM252.453 141.219C252.453 142.941 251.1 144.172 249.5 144.172C247.777 144.172 246.547 142.941 246.547 141.219C246.547 139.619 247.777 138.266 249.5 138.266C251.1 138.266 252.453 139.619 252.453 141.219Z" fill="#026AA2"/>
<rect x="194" y="29" width="58" height="58" rx="29" fill="#FDB022"/>
<path d="M222.405 69.435C221.335 69.435 220.35 69.245 219.45 68.865C218.55 68.485 217.775 67.945 217.125 67.245C216.475 66.535 216 65.69 215.7 64.71L217.8 64.08C218.16 65.15 218.75 65.96 219.57 66.51C220.4 67.06 221.335 67.325 222.375 67.305C223.335 67.285 224.16 67.07 224.85 66.66C225.55 66.25 226.085 65.68 226.455 64.95C226.825 64.22 227.01 63.375 227.01 62.415C227.01 60.945 226.58 59.765 225.72 58.875C224.87 57.975 223.745 57.525 222.345 57.525C221.955 57.525 221.545 57.58 221.115 57.69C220.685 57.79 220.285 57.935 219.915 58.125L218.805 56.37L227.205 48.615L227.565 49.515H216.555V47.4H229.035V49.545L221.715 56.535L221.685 55.665C223.185 55.475 224.505 55.645 225.645 56.175C226.785 56.705 227.675 57.515 228.315 58.605C228.965 59.685 229.29 60.955 229.29 62.415C229.29 63.795 228.99 65.015 228.39 66.075C227.8 67.125 226.985 67.95 225.945 68.55C224.905 69.14 223.725 69.435 222.405 69.435Z" fill="white"/>
<defs>
<filter id="filter0_d_23_1240" x="0" y="0.588257" width="450" height="287.231" filterUnits="userSpaceOnUse" color-interpolation-filters="sRGB">
<feFlood flood-opacity="0" result="BackgroundImageFix"/>
<feColorMatrix in="SourceAlpha" type="matrix" values="0 0 0 0 0 0 0 0 0 0 0 0 0 0 0 0 0 0 127 0" result="hardAlpha"/>
<feOffset dy="4"/>
<feGaussianBlur stdDeviation="20"/>
<feComposite in2="hardAlpha" operator="out"/>
<feColorMatrix type="matrix" values="0 0 0 0 0 0 0 0 0 0 0 0 0 0 0 0 0 0 0.08 0"/>
<feBlend mode="normal" in2="BackgroundImageFix" result="effect1_dropShadow_23_1240"/>
<feBlend mode="normal" in="SourceGraphic" in2="effect1_dropShadow_23_1240" result="shape"/>
</filter>
</defs>
</svg>
