<svg width="450" height="288" viewBox="0 0 450 288" fill="none" xmlns="http://www.w3.org/2000/svg">
<g filter="url(#filter0_d_23_1200)">
<path d="M391.616 36.7701C401.293 35.312 410 42.8053 410 52.5915L410 202.354C410 210.27 404.212 216.996 396.384 218.176L227.384 243.641C225.804 243.879 224.196 243.879 222.616 243.641L53.616 218.176C45.7885 216.996 40 210.27 40 202.354L40 52.5915C40 42.8053 48.7071 35.312 58.384 36.7701L222.616 61.5169C224.196 61.755 225.804 61.755 227.384 61.5169L391.616 36.7701Z" fill="white"/>
</g>
<path d="M212.312 175V143.5H198.531C195.209 143.5 192.625 140.916 192.625 137.594V123.812H176.875C174.66 123.812 172.938 125.658 172.938 127.75V175C172.938 177.215 174.66 178.938 176.875 178.938H208.375C210.467 178.938 212.312 177.215 212.312 175ZM212.189 139.562C212.066 139.316 211.943 138.947 211.697 138.701L197.424 124.428C197.178 124.182 196.809 124.059 196.562 123.936V137.594C196.562 138.701 197.424 139.562 198.531 139.562H212.189ZM169 127.75C169 123.443 172.445 119.875 176.875 119.875H196.07C197.547 119.875 199.146 120.613 200.254 121.721L214.404 135.871C215.512 136.979 216.25 138.578 216.25 140.055V175C216.25 179.43 212.682 182.875 208.375 182.875H176.875C172.445 182.875 169 179.43 169 175V127.75Z" fill="#026AA2"/>
<path d="M220 189.5H185.5L203 161L220 153.5V189.5Z" fill="white"/>
<path d="M230.625 107.25C228.762 107.25 227.312 108.803 227.312 110.562V134.785L234.248 127.746C235.904 126.193 238.492 126.193 240.148 127.746L247.188 134.785L260.748 121.121C262.404 119.568 264.992 119.568 266.648 121.121L273.688 128.16V110.562C273.688 108.803 272.135 107.25 270.375 107.25H230.625ZM227.312 139.443V143.688C227.312 145.551 228.762 147 230.625 147H234.869L244.807 137.062L237.768 130.127C237.457 129.816 236.939 129.816 236.629 130.127L227.312 139.443ZM264.268 123.502C263.957 123.191 263.439 123.191 263.129 123.502L239.527 147H270.375C272.135 147 273.688 145.551 273.688 143.688V132.818L264.268 123.502ZM224 110.562C224 106.939 226.898 103.938 230.625 103.938H270.375C273.998 103.938 277 106.939 277 110.562V143.688C277 147.414 273.998 150.312 270.375 150.312H230.625C226.898 150.312 224 147.414 224 143.688V110.562ZM240.562 115.531C240.562 114.703 239.734 113.875 238.906 113.875C237.975 113.875 237.25 114.703 237.25 115.531C237.25 116.463 237.975 117.188 238.906 117.188C239.734 117.188 240.562 116.463 240.562 115.531ZM233.938 115.531C233.938 113.771 234.869 112.219 236.422 111.287C237.871 110.355 239.838 110.355 241.391 111.287C242.84 112.219 243.875 113.771 243.875 115.531C243.875 117.395 242.84 118.947 241.391 119.879C239.838 120.811 237.871 120.811 236.422 119.879C234.869 118.947 233.938 117.395 233.938 115.531Z" fill="#026AA2"/>
<path d="M193.181 191.562C193.067 189.009 194.18 186.556 196.175 184.96L201.59 180.628C202.518 179.885 203.269 178.945 203.789 177.876L209.52 166.076C210.749 163.547 213.213 161.849 216.013 161.602L225.782 160.74C227.544 160.584 229.308 161.017 230.798 161.971L239.601 167.605C240.524 168.195 241.558 168.59 242.64 168.764L250.788 170.079C254.197 170.629 256.869 173.303 257.414 176.713L258.116 181.101C258.366 182.665 259.075 184.12 260.153 185.28L262.862 188.198C264.236 189.678 265 191.622 265 193.642V202.887C265 207.349 261.349 210.949 256.887 210.886L201.544 210.106C197.308 210.047 193.853 206.695 193.665 202.462L193.181 191.562Z" fill="#9CE0FF"/>
<path d="M237.865 169.379C234.666 164.826 229.375 161.75 223.469 161.75C213.871 161.75 206.119 169.256 205.75 178.73C205.627 180.33 204.643 181.684 203.043 182.299C197.752 184.145 193.938 189.312 193.938 195.219C193.938 202.848 200.09 209 207.719 209H253C259.521 209 264.812 203.709 264.812 197.188C264.812 192.758 262.229 188.82 258.414 186.852C256.814 185.867 255.953 184.021 256.568 182.176C256.814 181.438 256.938 180.453 256.938 179.469C256.938 174.055 252.508 169.625 247.094 169.625C245.494 169.625 244.141 169.994 242.787 170.609C241.064 171.471 238.973 170.855 237.865 169.379ZM223.469 157.812C230.729 157.812 237.25 161.504 241.188 167.041C242.91 166.18 244.879 165.688 247.094 165.688C254.6 165.688 260.875 171.963 260.875 179.469C260.875 180.822 260.629 182.053 260.26 183.283C265.305 185.99 268.75 191.158 268.75 197.188C268.75 205.924 261.613 212.938 253 212.938H207.719C197.875 212.938 190 205.062 190 195.219C190 187.59 194.922 180.945 201.812 178.607C202.305 167.041 211.779 157.812 223.469 157.812ZM218.055 184.021L227.898 174.178C228.637 173.439 229.99 173.439 230.729 174.178L240.572 184.021C241.311 184.76 241.311 186.113 240.572 186.852C239.834 187.59 238.48 187.59 237.742 186.852L231.344 180.33V199.156C231.344 200.264 230.359 201.125 229.375 201.125C228.268 201.125 227.406 200.264 227.406 199.156V180.33L220.885 186.852C220.146 187.59 218.793 187.59 218.055 186.852C217.316 186.113 217.316 184.76 218.055 184.021Z" fill="#026AA2"/>
<rect x="195" y="27" width="58" height="58" rx="29" fill="#344054"/>
<path d="M223.865 67V47.86L219.8 50.305V47.83L223.865 45.4H226.1V67H223.865Z" fill="white"/>
<defs>
<filter id="filter0_d_23_1200" x="0" y="0.588196" width="450" height="287.231" filterUnits="userSpaceOnUse" color-interpolation-filters="sRGB">
<feFlood flood-opacity="0" result="BackgroundImageFix"/>
<feColorMatrix in="SourceAlpha" type="matrix" values="0 0 0 0 0 0 0 0 0 0 0 0 0 0 0 0 0 0 127 0" result="hardAlpha"/>
<feOffset dy="4"/>
<feGaussianBlur stdDeviation="20"/>
<feComposite in2="hardAlpha" operator="out"/>
<feColorMatrix type="matrix" values="0 0 0 0 0 0 0 0 0 0 0 0 0 0 0 0 0 0 0.08 0"/>
<feBlend mode="normal" in2="BackgroundImageFix" result="effect1_dropShadow_23_1200"/>
<feBlend mode="normal" in="SourceGraphic" in2="effect1_dropShadow_23_1200" result="shape"/>
</filter>
</defs>
</svg>
