<svg width="450" height="288" viewBox="0 0 450 288" fill="none" xmlns="http://www.w3.org/2000/svg">
<g filter="url(#filter0_d_23_1218)">
<path d="M391.616 36.7701C401.293 35.312 410 42.8053 410 52.5915L410 202.354C410 210.27 404.212 216.996 396.384 218.176L227.384 243.641C225.804 243.879 224.196 243.879 222.616 243.641L53.616 218.176C45.7885 216.996 40 210.27 40 202.354L40 52.5915C40 42.8053 48.7071 35.312 58.384 36.7701L222.616 61.5169C224.196 61.755 225.804 61.755 227.384 61.5169L391.616 36.7701Z" fill="white"/>
</g>
<path d="M244.299 183.172C247.498 183.172 250.451 181.695 252.297 179.234L274.076 149.088C275.307 147.488 275.061 145.396 273.707 144.043C272.354 142.689 270.139 142.443 268.662 143.674L238.516 165.453C236.055 167.299 234.455 170.252 234.455 173.451C234.455 174.066 234.578 174.682 234.701 175.297C234.701 175.543 234.824 175.666 234.824 175.789L241.961 182.926C242.084 182.926 242.207 183.049 242.453 183.049C243.068 183.172 243.684 183.172 244.299 183.172ZM239.131 185.756L232.117 178.619C231.871 178.619 231.748 178.496 231.625 178.496C230.887 178.373 230.271 178.373 229.656 178.373C224.119 178.373 219.812 182.68 219.812 188.217C219.812 188.463 219.812 188.832 219.812 189.201C220.059 191.293 219.443 193.262 218.336 194.984C217.105 196.584 215.137 197.938 212.43 197.938H229.656C235.07 197.938 239.5 193.631 239.5 188.094C239.5 187.479 239.377 186.863 239.254 186.248C239.254 186.002 239.131 185.879 239.131 185.756ZM243.314 187.109C243.314 187.479 243.438 187.848 243.438 188.094C243.438 195.723 237.162 201.875 229.656 201.875H211.938C209.723 201.875 208 200.152 208 197.938C208 195.846 209.723 194 211.938 194H212.43C214.645 194 216.121 191.785 215.875 189.57C215.875 189.078 215.875 188.586 215.875 188.094C215.875 180.588 222.027 174.312 229.656 174.312C229.902 174.312 230.271 174.436 230.641 174.436C230.641 174.066 230.641 173.697 230.641 173.451C230.641 169.021 232.732 164.838 236.301 162.254L266.324 140.475C269.4 138.137 273.707 138.506 276.537 141.213C279.244 143.92 279.613 148.35 277.275 151.426L255.496 181.449C252.912 185.018 248.729 187.109 244.299 187.109C244.053 187.109 243.684 187.109 243.314 187.109Z" fill="#026AA2"/>
<ellipse cx="214.5" cy="136" rx="27.5" ry="28" fill="#9CE0FF"/>
<path d="M206.379 113.734C205.887 114.596 205.025 114.965 204.041 114.719C200.965 113.734 197.396 114.473 194.936 116.934C192.475 119.395 191.736 122.963 192.721 126.039C192.967 127.023 192.598 127.885 191.736 128.377C188.783 129.854 186.938 132.93 186.938 136.375C186.938 139.943 188.783 142.896 191.736 144.496C192.598 144.988 192.967 145.85 192.721 146.834C191.736 149.91 192.475 153.479 194.936 155.939C197.396 158.4 200.965 159.139 204.041 158.154C205.025 157.908 206.01 158.277 206.379 159.139C207.979 162.092 210.932 163.938 214.5 163.938C217.945 163.938 221.021 162.092 222.498 159.139C222.99 158.277 223.975 157.908 224.836 158.154C227.912 159.139 231.48 158.4 233.941 155.939C236.402 153.479 237.141 149.91 236.156 146.834C235.91 145.85 236.279 144.865 237.141 144.496C240.094 142.896 242.062 139.943 242.062 136.375C242.062 132.93 240.094 129.854 237.141 128.377C236.279 127.885 235.91 126.9 236.156 126.039C237.141 122.963 236.402 119.395 233.941 116.934C231.48 114.473 227.912 113.734 224.836 114.719C223.852 114.965 222.99 114.596 222.498 113.734C221.021 110.781 217.945 108.812 214.5 108.812C210.932 108.812 207.979 110.781 206.379 113.734ZM214.5 104.875C218.93 104.875 222.867 107.213 225.205 110.535C229.266 109.797 233.572 111.027 236.771 114.104C239.848 117.303 241.078 121.609 240.34 125.67C243.662 128.008 246 131.945 246 136.375C246 140.928 243.662 144.742 240.34 147.203C241.078 151.264 239.848 155.57 236.771 158.646C233.572 161.846 229.266 163.076 225.205 162.338C222.867 165.66 218.93 167.875 214.5 167.875C209.947 167.875 206.133 165.66 203.672 162.338C199.611 163.076 195.305 161.846 192.229 158.646C189.029 155.57 187.799 151.264 188.537 147.203C185.215 144.742 183 140.928 183 136.375C183 131.945 185.215 128.008 188.537 125.67C187.799 121.609 189.029 117.303 192.229 114.104C195.305 111.027 199.611 109.797 203.672 110.535C206.133 107.213 209.947 104.875 214.5 104.875ZM227.666 129.977L211.916 145.727C211.178 146.465 209.824 146.465 209.086 145.727L201.211 137.852C200.473 137.113 200.473 135.76 201.211 135.021C201.949 134.283 203.303 134.283 204.041 135.021L210.562 141.543L224.836 127.146C225.574 126.408 226.928 126.408 227.666 127.146C228.404 127.885 228.404 129.238 227.666 129.977Z" fill="#026AA2"/>
<rect x="189" y="30" width="58" height="58" rx="29" fill="#DD2590"/>
<path d="M210.5 69.985L210.515 67.975L220.28 59.155C221.12 58.395 221.675 57.675 221.945 56.995C222.225 56.305 222.365 55.585 222.365 54.835C222.365 53.945 222.155 53.14 221.735 52.42C221.315 51.7 220.75 51.13 220.04 50.71C219.33 50.28 218.535 50.065 217.655 50.065C216.735 50.065 215.915 50.285 215.195 50.725C214.475 51.165 213.905 51.745 213.485 52.465C213.075 53.185 212.875 53.97 212.885 54.82H210.635C210.635 53.51 210.945 52.335 211.565 51.295C212.185 50.255 213.025 49.44 214.085 48.85C215.145 48.25 216.345 47.95 217.685 47.95C218.995 47.95 220.17 48.26 221.21 48.88C222.26 49.49 223.085 50.32 223.685 51.37C224.295 52.41 224.6 53.57 224.6 54.85C224.6 55.75 224.49 56.545 224.27 57.235C224.06 57.915 223.725 58.55 223.265 59.14C222.815 59.72 222.24 60.32 221.54 60.94L212.87 68.77L212.525 67.87H224.6V69.985H210.5Z" fill="white"/>
<defs>
<filter id="filter0_d_23_1218" x="0" y="0.588257" width="450" height="287.231" filterUnits="userSpaceOnUse" color-interpolation-filters="sRGB">
<feFlood flood-opacity="0" result="BackgroundImageFix"/>
<feColorMatrix in="SourceAlpha" type="matrix" values="0 0 0 0 0 0 0 0 0 0 0 0 0 0 0 0 0 0 127 0" result="hardAlpha"/>
<feOffset dy="4"/>
<feGaussianBlur stdDeviation="20"/>
<feComposite in2="hardAlpha" operator="out"/>
<feColorMatrix type="matrix" values="0 0 0 0 0 0 0 0 0 0 0 0 0 0 0 0 0 0 0.08 0"/>
<feBlend mode="normal" in2="BackgroundImageFix" result="effect1_dropShadow_23_1218"/>
<feBlend mode="normal" in="SourceGraphic" in2="effect1_dropShadow_23_1218" result="shape"/>
</filter>
</defs>
</svg>
