<svg width="1865" height="210" viewBox="0 0 1865 210" fill="none" xmlns="http://www.w3.org/2000/svg">
<path d="M11.0149 22.9284C5.91216 12.3066 13.6531 0 25.437 0H319.493C325.645 0 331.252 3.5267 333.916 9.07156L376.672 98.0716C378.775 102.451 378.775 107.549 376.672 111.928L333.916 200.928C331.252 206.473 325.645 210 319.493 210H25.437C13.6531 210 5.91217 197.693 11.0149 187.072L47.114 111.928C49.2179 107.549 49.2179 102.451 47.114 98.0716L11.0149 22.9284Z" fill="#FAFAFA"/>
<path d="M1496.01 22.9284C1490.91 12.3066 1498.65 0 1510.44 0H1804.49C1810.64 0 1816.25 3.5267 1818.92 9.07156L1861.67 98.0716C1863.78 102.451 1863.78 107.549 1861.67 111.928L1818.92 200.928C1816.25 206.473 1810.64 210 1804.49 210H1510.44C1498.65 210 1490.91 197.693 1496.01 187.072L1532.11 111.928C1534.22 107.549 1534.22 102.451 1532.11 98.0716L1496.01 22.9284Z" fill="#FAFAFA"/>
</svg>
