<svg width="450" height="290" viewBox="0 0 450 290" fill="none" xmlns="http://www.w3.org/2000/svg">
<g filter="url(#filter0_d_18_675)">
<path d="M42.0149 58.9284C36.9122 48.3066 44.6531 36 56.437 36H350.493C356.645 36 362.252 39.5267 364.916 45.0716L407.672 134.072C409.775 138.451 409.775 143.549 407.672 147.928L364.916 236.928C362.252 242.473 356.645 246 350.493 246H56.437C44.6531 246 36.9122 233.693 42.0149 223.072L78.114 147.928C80.2179 143.549 80.2179 138.451 78.114 134.072L42.0149 58.9284Z" fill="white"/>
</g>
<path d="M235.299 161.172C238.498 161.172 241.451 159.695 243.297 157.234L265.076 127.088C266.307 125.488 266.061 123.396 264.707 122.043C263.354 120.689 261.139 120.443 259.662 121.674L229.516 143.453C227.055 145.299 225.455 148.252 225.455 151.451C225.455 152.066 225.578 152.682 225.701 153.297C225.701 153.543 225.824 153.666 225.824 153.789L232.961 160.926C233.084 160.926 233.207 161.049 233.453 161.049C234.068 161.172 234.684 161.172 235.299 161.172ZM230.131 163.756L223.117 156.619C222.871 156.619 222.748 156.496 222.625 156.496C221.887 156.373 221.271 156.373 220.656 156.373C215.119 156.373 210.812 160.68 210.812 166.217C210.812 166.463 210.812 166.832 210.812 167.201C211.059 169.293 210.443 171.262 209.336 172.984C208.105 174.584 206.137 175.938 203.43 175.938H220.656C226.07 175.938 230.5 171.631 230.5 166.094C230.5 165.479 230.377 164.863 230.254 164.248C230.254 164.002 230.131 163.879 230.131 163.756ZM234.314 165.109C234.314 165.479 234.438 165.848 234.438 166.094C234.438 173.723 228.162 179.875 220.656 179.875H202.938C200.723 179.875 199 178.152 199 175.938C199 173.846 200.723 172 202.938 172H203.43C205.645 172 207.121 169.785 206.875 167.57C206.875 167.078 206.875 166.586 206.875 166.094C206.875 158.588 213.027 152.312 220.656 152.312C220.902 152.312 221.271 152.436 221.641 152.436C221.641 152.066 221.641 151.697 221.641 151.451C221.641 147.021 223.732 142.838 227.301 140.254L257.324 118.475C260.4 116.137 264.707 116.506 267.537 119.213C270.244 121.92 270.613 126.35 268.275 129.426L246.496 159.449C243.912 163.018 239.729 165.109 235.299 165.109C235.053 165.109 234.684 165.109 234.314 165.109Z" fill="#026AA2"/>
<ellipse cx="205.5" cy="114" rx="27.5" ry="28" fill="#9CE0FF"/>
<path d="M197.379 91.7344C196.887 92.5957 196.025 92.9648 195.041 92.7188C191.965 91.7344 188.396 92.4727 185.936 94.9336C183.475 97.3945 182.736 100.963 183.721 104.039C183.967 105.023 183.598 105.885 182.736 106.377C179.783 107.854 177.938 110.93 177.938 114.375C177.938 117.943 179.783 120.896 182.736 122.496C183.598 122.988 183.967 123.85 183.721 124.834C182.736 127.91 183.475 131.479 185.936 133.939C188.396 136.4 191.965 137.139 195.041 136.154C196.025 135.908 197.01 136.277 197.379 137.139C198.979 140.092 201.932 141.938 205.5 141.938C208.945 141.938 212.021 140.092 213.498 137.139C213.99 136.277 214.975 135.908 215.836 136.154C218.912 137.139 222.48 136.4 224.941 133.939C227.402 131.479 228.141 127.91 227.156 124.834C226.91 123.85 227.279 122.865 228.141 122.496C231.094 120.896 233.062 117.943 233.062 114.375C233.062 110.93 231.094 107.854 228.141 106.377C227.279 105.885 226.91 104.9 227.156 104.039C228.141 100.963 227.402 97.3945 224.941 94.9336C222.48 92.4727 218.912 91.7344 215.836 92.7188C214.852 92.9648 213.99 92.5957 213.498 91.7344C212.021 88.7812 208.945 86.8125 205.5 86.8125C201.932 86.8125 198.979 88.7812 197.379 91.7344ZM205.5 82.875C209.93 82.875 213.867 85.2129 216.205 88.5352C220.266 87.7969 224.572 89.0273 227.771 92.1035C230.848 95.3027 232.078 99.6094 231.34 103.67C234.662 106.008 237 109.945 237 114.375C237 118.928 234.662 122.742 231.34 125.203C232.078 129.264 230.848 133.57 227.771 136.646C224.572 139.846 220.266 141.076 216.205 140.338C213.867 143.66 209.93 145.875 205.5 145.875C200.947 145.875 197.133 143.66 194.672 140.338C190.611 141.076 186.305 139.846 183.229 136.646C180.029 133.57 178.799 129.264 179.537 125.203C176.215 122.742 174 118.928 174 114.375C174 109.945 176.215 106.008 179.537 103.67C178.799 99.6094 180.029 95.3027 183.229 92.1035C186.305 89.0273 190.611 87.7969 194.672 88.5352C197.133 85.2129 200.947 82.875 205.5 82.875ZM218.666 107.977L202.916 123.727C202.178 124.465 200.824 124.465 200.086 123.727L192.211 115.852C191.473 115.113 191.473 113.76 192.211 113.021C192.949 112.283 194.303 112.283 195.041 113.021L201.562 119.543L215.836 105.146C216.574 104.408 217.928 104.408 218.666 105.146C219.404 105.885 219.404 107.238 218.666 107.977Z" fill="#026AA2"/>
<rect x="181" y="228" width="58" height="58" rx="29" fill="#DD2590"/>
<path d="M202.5 267.985L202.515 265.975L212.28 257.155C213.12 256.395 213.675 255.675 213.945 254.995C214.225 254.305 214.365 253.585 214.365 252.835C214.365 251.945 214.155 251.14 213.735 250.42C213.315 249.7 212.75 249.13 212.04 248.71C211.33 248.28 210.535 248.065 209.655 248.065C208.735 248.065 207.915 248.285 207.195 248.725C206.475 249.165 205.905 249.745 205.485 250.465C205.075 251.185 204.875 251.97 204.885 252.82H202.635C202.635 251.51 202.945 250.335 203.565 249.295C204.185 248.255 205.025 247.44 206.085 246.85C207.145 246.25 208.345 245.95 209.685 245.95C210.995 245.95 212.17 246.26 213.21 246.88C214.26 247.49 215.085 248.32 215.685 249.37C216.295 250.41 216.6 251.57 216.6 252.85C216.6 253.75 216.49 254.545 216.27 255.235C216.06 255.915 215.725 256.55 215.265 257.14C214.815 257.72 214.24 258.32 213.54 258.94L204.87 266.77L204.525 265.87H216.6V267.985H202.5Z" fill="white"/>
<defs>
<filter id="filter0_d_18_675" x="0.417969" y="0" width="448.832" height="290" filterUnits="userSpaceOnUse" color-interpolation-filters="sRGB">
<feFlood flood-opacity="0" result="BackgroundImageFix"/>
<feColorMatrix in="SourceAlpha" type="matrix" values="0 0 0 0 0 0 0 0 0 0 0 0 0 0 0 0 0 0 127 0" result="hardAlpha"/>
<feOffset dy="4"/>
<feGaussianBlur stdDeviation="20"/>
<feComposite in2="hardAlpha" operator="out"/>
<feColorMatrix type="matrix" values="0 0 0 0 0 0 0 0 0 0 0 0 0 0 0 0 0 0 0.08 0"/>
<feBlend mode="normal" in2="BackgroundImageFix" result="effect1_dropShadow_18_675"/>
<feBlend mode="normal" in="SourceGraphic" in2="effect1_dropShadow_18_675" result="shape"/>
</filter>
</defs>
</svg>
