<svg width="18" height="18" viewBox="0 0 18 18" fill="none" xmlns="http://www.w3.org/2000/svg">
<path d="M16.75 0.347656C17.4141 0.347656 18 0.933594 18 1.63672V16.5977C18 17.3008 17.4141 17.8477 16.75 17.8477H1.71094C1.04688 17.8477 0.5 17.3008 0.5 16.5977V1.63672C0.5 0.933594 1.04688 0.347656 1.71094 0.347656H16.75ZM5.77344 15.3477V7.02734H3.19531V15.3477H5.77344ZM4.48438 5.85547C5.30469 5.85547 5.96875 5.19141 5.96875 4.37109C5.96875 3.55078 5.30469 2.84766 4.48438 2.84766C3.625 2.84766 2.96094 3.55078 2.96094 4.37109C2.96094 5.19141 3.625 5.85547 4.48438 5.85547ZM15.5 15.3477V10.7773C15.5 8.55078 14.9922 6.79297 12.375 6.79297C11.125 6.79297 10.2656 7.49609 9.91406 8.16016H9.875V7.02734H7.41406V15.3477H9.99219V11.2461C9.99219 10.1523 10.1875 9.09766 11.5547 9.09766C12.8828 9.09766 12.8828 10.3477 12.8828 11.2852V15.3477H15.5Z" fill="white"/>
</svg>
