<svg width="155" height="37" viewBox="0 0 155 37" fill="none" xmlns="http://www.w3.org/2000/svg">
<path fill-rule="evenodd" clip-rule="evenodd" d="M141.344 10.7123L141.981 10.9074C145.449 12.3522 147.882 15.7363 147.882 19.6803L147.773 20.7402L146.934 20.8231C143.255 20.8231 140.272 17.8841 140.272 14.2594C140.272 13.3532 140.458 12.4898 140.796 11.704L141.343 10.7109L141.344 10.7123Z" fill="#DD2590"/>
<path fill-rule="evenodd" clip-rule="evenodd" d="M146.922 7.66638C150.569 7.66638 153.527 10.6027 153.527 14.226C153.527 17.3963 151.263 20.0399 148.254 20.652L147.754 20.7015L147.862 19.6416C147.862 15.7002 145.449 12.3201 142.011 10.8754L141.379 10.6802L141.447 10.5573C142.634 8.81311 144.644 7.66504 146.924 7.66504L146.922 7.66638Z" fill="white"/>
<path fill-rule="evenodd" clip-rule="evenodd" d="M128.467 20.4221L128.386 19.7672C128.297 16.0424 130.42 12.4498 134.057 10.8219L135.079 10.4824L135.499 11.2041C137.007 14.5227 135.519 18.4254 132.176 19.9223C131.34 20.2965 130.467 20.485 129.606 20.505L128.467 20.4221Z" fill="#FDB022"/>
<path fill-rule="evenodd" clip-rule="evenodd" d="M123.394 16.6237C121.886 13.3051 123.373 9.40245 126.716 7.90555C129.641 6.59575 133.017 7.56206 134.825 10.048L135.078 10.4824L134.056 10.8218C130.42 12.4497 128.297 16.0423 128.386 19.7672L128.467 20.4221L128.327 20.4114C126.226 20.0532 124.336 18.698 123.394 16.6237Z" fill="white"/>
<path fill-rule="evenodd" clip-rule="evenodd" d="M144.015 27.312L143.505 27.733C140.395 29.8193 136.204 29.9864 132.858 27.8279L132.018 27.157L132.403 26.4166C134.401 23.3639 138.514 22.4992 141.589 24.4826C142.358 24.9785 142.989 25.6053 143.471 26.315L144.017 27.312H144.015Z" fill="#0BA5EC"/>
<path fill-rule="evenodd" clip-rule="evenodd" d="M143.536 33.6001C141.538 36.6527 137.425 37.5175 134.35 35.5341C131.66 33.7979 130.656 30.4553 131.785 27.6018L132.017 27.1567L132.857 27.8277C136.201 29.9862 140.394 29.8191 143.504 27.7328L144.014 27.3118L144.081 27.4347C144.912 29.3834 144.784 31.6929 143.535 33.6014L143.536 33.6001Z" fill="white"/>
<path d="M1.6331 33.3101C1.14572 33.3101 0.752597 33.1605 0.45102 32.8624C0.149442 32.5644 0 32.1728 0 31.6889V1.6212C0 1.13872 0.150789 0.747116 0.45102 0.447735C0.751251 0.14969 1.14572 0 1.6331 0C2.12047 0 2.51359 0.14969 2.81517 0.447735C3.11675 0.745779 3.26619 1.13738 3.26619 1.6212V31.6889C3.26619 32.1728 3.1154 32.563 2.81517 32.8624C2.51494 33.1605 2.12047 33.3101 1.6331 33.3101ZM2.70612 25.5049L0.686627 23.3303L15.3804 10.1509C15.7238 9.83814 16.0819 9.68845 16.4548 9.70315C16.8264 9.71785 17.1697 9.89561 17.4861 10.2364C17.8011 10.5772 17.9519 10.9408 17.9371 11.3244C17.9223 11.7079 17.7433 12.0434 17.3999 12.3267L2.70612 25.5049ZM17.5292 33.0963C17.1563 33.409 16.7699 33.544 16.3687 33.5013C15.9674 33.4585 15.6241 33.2527 15.3374 32.8825L5.7569 21.1959L8.07662 19.1484L17.7432 30.9619C18.0287 31.3027 18.1579 31.6649 18.1296 32.0498C18.1014 32.4334 17.8994 32.7822 17.5278 33.095L17.5292 33.0963Z" fill="white"/>
<path d="M33.1249 33.5224C30.8335 33.5224 28.7857 33.0105 26.9816 31.9868C25.1775 30.963 23.7599 29.5556 22.7286 27.7647C21.6973 25.9738 21.1816 23.9409 21.1816 21.6661C21.1816 19.3914 21.6973 17.3158 22.7286 15.5248C23.7599 13.7339 25.1775 12.3265 26.9816 11.3028C28.7857 10.279 30.8335 9.76709 33.1249 9.76709C35.4164 9.76709 37.4574 10.279 39.2467 11.3028C41.0359 12.3265 42.4469 13.7339 43.4782 15.5248C44.5095 17.3158 45.0386 19.3633 45.0682 21.6661C45.0682 23.9409 44.5458 25.9738 43.4997 27.7647C42.4536 29.5556 41.0359 30.963 39.2467 31.9868C37.456 33.0105 35.415 33.5224 33.1249 33.5224ZM33.1249 30.5366C34.7863 30.5366 36.2753 30.1531 37.5934 29.3846C38.9101 28.6174 39.9414 27.5656 40.6872 26.229C41.4318 24.8925 41.8047 23.3715 41.8047 21.6661C41.8047 19.9607 41.4318 18.4318 40.6872 17.0819C39.9427 15.732 38.9114 14.6721 37.5934 13.905C36.2753 13.1378 34.7863 12.7529 33.1249 12.7529C31.4635 12.7529 29.9745 13.1365 28.6565 13.905C27.3384 14.6721 26.3004 15.732 25.541 17.0819C24.7817 18.4331 24.4021 19.9607 24.4021 21.6661C24.4021 23.3715 24.7817 24.8938 25.541 26.229C26.299 27.5656 27.3384 28.6174 28.6565 29.3846C29.9732 30.1517 31.4635 30.5366 33.1249 30.5366Z" fill="white"/>
<path d="M53.1448 33.3102C52.6292 33.3102 52.228 33.1685 51.9412 32.8839C51.6544 32.6005 51.5117 32.2009 51.5117 31.6904V11.6011C51.5117 11.0892 51.6544 10.6909 51.9412 10.4062C52.2266 10.1229 52.6292 9.97988 53.1448 9.97988C53.6605 9.97988 54.0617 10.1229 54.3484 10.4062C54.6339 10.6909 54.7779 11.0892 54.7779 11.6011V31.689C54.7779 32.2009 54.6339 32.5992 54.3484 32.8825C54.0617 33.1672 53.6605 33.3089 53.1448 33.3089V33.3102ZM52.8863 18.9373C52.9725 17.1744 53.437 15.596 54.2825 14.2033C55.1266 12.8106 56.2293 11.716 57.5904 10.9195C58.9502 10.1242 60.4621 9.72461 62.1235 9.72461C63.4402 9.72461 64.458 9.91039 65.1743 10.2793C65.8892 10.6495 66.1625 11.1894 65.9901 11.9005C65.8757 12.3268 65.6818 12.6115 65.4099 12.7532C65.1379 12.8962 64.8081 12.9523 64.4217 12.9242C64.0353 12.8962 63.5977 12.8681 63.1117 12.8387C61.5069 12.697 60.0824 12.8601 58.8371 13.3292C57.5917 13.7983 56.6035 14.5174 55.8725 15.4837C55.1428 16.45 54.7766 17.6021 54.7766 18.9386H52.8863V18.9373Z" fill="white"/>
<path d="M72.8216 33.3102C72.3059 33.3102 71.9047 33.1685 71.618 32.8839C71.3312 32.6005 71.1885 32.2009 71.1885 31.6904V11.6011C71.1885 11.0892 71.3312 10.6909 71.618 10.4062C71.9034 10.1229 72.3059 9.97988 72.8216 9.97988C73.3372 9.97988 73.7384 10.1229 74.0252 10.4062C74.3106 10.6909 74.4547 11.0892 74.4547 11.6011V31.689C74.4547 32.2009 74.3106 32.5992 74.0252 32.8825C73.7384 33.1672 73.3372 33.3089 72.8216 33.3089V33.3102ZM72.5631 18.9373C72.6492 17.1744 73.1137 15.596 73.9592 14.2033C74.8034 12.8106 75.906 11.716 77.2671 10.9195C78.6269 10.1242 80.1389 9.72461 81.8002 9.72461C83.1169 9.72461 84.1348 9.91039 84.851 10.2793C85.5659 10.6495 85.8392 11.1894 85.6669 11.9005C85.5524 12.3268 85.3586 12.6115 85.0866 12.7532C84.8133 12.8962 84.4848 12.9523 84.0984 12.9242C83.712 12.8962 83.2745 12.8681 82.7884 12.8387C81.1836 12.697 79.7592 12.8601 78.5138 13.3292C77.2671 13.7983 76.2803 14.5174 75.5492 15.4837C74.8182 16.45 74.4533 17.6021 74.4533 18.9386H72.5631V18.9373Z" fill="white"/>
<path d="M99.5018 33.5224C97.2965 33.5224 95.3201 33.0039 93.5726 31.9654C91.8251 30.9282 90.4424 29.5129 89.4272 27.7219C88.4108 25.931 87.9019 23.9115 87.9019 21.6661C87.9019 19.4208 88.4242 17.3585 89.4703 15.5676C90.5151 13.7767 91.9408 12.3626 93.7449 11.3241C95.549 10.287 97.5833 9.76709 99.8451 9.76709C102.107 9.76709 104.135 10.2857 105.924 11.3241C107.713 12.3626 109.131 13.7767 110.177 15.5676C111.222 17.3585 111.759 19.3927 111.788 21.6661L110.457 22.6899C110.457 24.7375 109.976 26.5779 109.018 28.2138C108.058 29.8497 106.754 31.1421 105.108 32.095C103.46 33.048 101.591 33.5238 99.5018 33.5238V33.5224ZM99.8451 30.5366C101.506 30.5366 102.987 30.1531 104.292 29.3846C105.595 28.6174 106.627 27.5575 107.386 26.2076C108.144 24.8578 108.525 23.3435 108.525 21.6648C108.525 19.9861 108.145 18.4384 107.386 17.1006C106.627 15.7641 105.595 14.7055 104.292 13.9237C102.989 13.1418 101.506 12.7502 99.8451 12.7502C98.1838 12.7502 96.7365 13.1418 95.4197 13.9237C94.1017 14.7055 93.0569 15.7654 92.2841 17.1006C91.5114 18.4371 91.1236 19.9581 91.1236 21.6648C91.1236 23.3715 91.51 24.8564 92.2841 26.2076C93.0569 27.5589 94.103 28.6174 95.4197 29.3846C96.7365 30.1517 98.212 30.5366 99.8451 30.5366ZM110.114 33.3099C109.626 33.3099 109.225 33.1602 108.911 32.8622C108.596 32.5641 108.439 32.1725 108.439 31.6887V24.3953L109.255 21.026L111.79 21.6661V31.6887C111.79 32.1725 111.632 32.5628 111.317 32.8622C111.002 33.1602 110.601 33.3099 110.114 33.3099Z" fill="white"/>
</svg>
