<svg width="36" height="35" viewBox="0 0 36 35" fill="none" xmlns="http://www.w3.org/2000/svg">
<path d="M5.66797 2.5C4.26172 2.5 3.16797 3.67188 3.16797 5V30C3.16797 31.4062 4.26172 32.5 5.66797 32.5H30.668C31.9961 32.5 33.168 31.4062 33.168 30V5C33.168 3.67188 31.9961 2.5 30.668 2.5H5.66797ZM0.667969 5C0.667969 2.26562 2.85547 0 5.66797 0H30.668C33.4023 0 35.668 2.26562 35.668 5V30C35.668 32.8125 33.4023 35 30.668 35H5.66797C2.85547 35 0.667969 32.8125 0.667969 30V5ZM13.0898 18.125H16.918C17.3086 18.125 17.6992 18.3594 17.9336 18.75C18.168 19.0625 18.168 19.5312 18.0117 19.9219L16.5273 23.2031L23.168 16.875H19.418C18.9492 16.875 18.5586 16.7188 18.3242 16.3281C18.0898 15.9375 18.0898 15.5469 18.2461 15.1562L19.7305 11.875L13.0898 18.125ZM22.6211 6.25C23.793 6.25 24.5742 7.5 24.0273 8.51562L21.3711 14.375H25.1992C26.1367 14.375 26.918 15.1562 26.918 16.0938C26.918 16.5625 26.6836 17.0312 26.3711 17.3438L14.7305 28.3594C14.418 28.5938 14.0273 28.75 13.6367 28.75C12.4648 28.75 11.7617 27.5781 12.2305 26.5625L14.9648 20.625H11.0586C10.1211 20.625 9.41797 19.9219 9.41797 18.9844C9.41797 18.5156 9.57422 18.0469 9.88672 17.7344L21.5273 6.71875C21.8398 6.40625 22.2305 6.25 22.6211 6.25Z" fill="white"/>
</svg>
