<svg width="50" height="35" viewBox="0 0 50 35" fill="none" xmlns="http://www.w3.org/2000/svg">
<path d="M30.3906 7.34375C28.3594 4.45312 25 2.5 21.25 2.5C15.1562 2.5 10.2344 7.26562 10 13.2812C9.92188 14.2969 9.29688 15.1562 8.28125 15.5469C4.92188 16.7188 2.5 20 2.5 23.75C2.5 28.5938 6.40625 32.5 11.25 32.5H40C44.1406 32.5 47.5 29.1406 47.5 25C47.5 22.1875 45.8594 19.6875 43.4375 18.4375C42.4219 17.8125 41.875 16.6406 42.2656 15.4688C42.4219 15 42.5 14.375 42.5 13.75C42.5 10.3125 39.6875 7.5 36.25 7.5C35.2344 7.5 34.375 7.73438 33.5156 8.125C32.4219 8.67188 31.0938 8.28125 30.3906 7.34375ZM21.25 0C25.8594 0 30 2.34375 32.5 5.85938C33.5938 5.3125 34.8438 5 36.25 5C41.0156 5 45 8.98438 45 13.75C45 14.6094 44.8438 15.3906 44.6094 16.1719C47.8125 17.8906 50 21.1719 50 25C50 30.5469 45.4688 35 40 35H11.25C5 35 0 30 0 23.75C0 18.9062 3.125 14.6875 7.5 13.2031C7.8125 5.85938 13.8281 0 21.25 0ZM17.8125 16.6406L24.0625 10.3906C24.5312 9.92188 25.3906 9.92188 25.8594 10.3906L32.1094 16.6406C32.5781 17.1094 32.5781 17.9688 32.1094 18.4375C31.6406 18.9062 30.7812 18.9062 30.3125 18.4375L26.25 14.2969V26.25C26.25 26.9531 25.625 27.5 25 27.5C24.2969 27.5 23.75 26.9531 23.75 26.25V14.2969L19.6094 18.4375C19.1406 18.9062 18.2812 18.9062 17.8125 18.4375C17.3438 17.9688 17.3438 17.1094 17.8125 16.6406Z" fill="white"/>
</svg>
