<svg width="30" height="40" viewBox="0 0 30 40" fill="none" xmlns="http://www.w3.org/2000/svg">
<path d="M18.75 25C18.75 23.2812 17.7344 21.6406 16.25 20.7031C14.6875 19.8438 12.7344 19.8438 11.25 20.7031C9.6875 21.6406 8.75 23.2812 8.75 25C8.75 26.7969 9.6875 28.4375 11.25 29.375C12.7344 30.2344 14.6875 30.2344 16.25 29.375C17.7344 28.4375 18.75 26.7969 18.75 25ZM18.0469 31.1719C16.7969 32.0312 15.3125 32.5 13.75 32.5C9.60938 32.5 6.25 29.1406 6.25 25C6.25 20.8594 9.60938 17.5 13.75 17.5C17.8906 17.5 21.25 20.8594 21.25 25C21.25 26.6406 20.7031 28.125 19.8438 29.375L23.3594 32.8906C23.8281 33.3594 23.8281 34.2188 23.3594 34.6875C22.8906 35.1562 22.1094 35.1562 21.5625 34.6875L18.0469 31.1719ZM27.5 35V15H18.75C16.6406 15 15 13.3594 15 11.25V2.5H5C3.59375 2.5 2.5 3.67188 2.5 5V35C2.5 36.4062 3.59375 37.5 5 37.5H25C26.3281 37.5 27.5 36.4062 27.5 35ZM27.4219 12.5C27.3438 12.3438 27.2656 12.1094 27.1094 11.9531L18.0469 2.89062C17.8906 2.73438 17.6562 2.65625 17.5 2.57812V11.25C17.5 11.9531 18.0469 12.5 18.75 12.5H27.4219ZM0 5C0 2.26562 2.1875 0 5 0H17.1875C18.125 0 19.1406 0.46875 19.8438 1.17188L28.8281 10.1562C29.5312 10.8594 30 11.875 30 12.8125V35C30 37.8125 27.7344 40 25 40H5C2.1875 40 0 37.8125 0 35V5Z" fill="white"/>
</svg>
